<svg width="139" height="40" viewBox="0 0 139 40" fill="none" xmlns="http://www.w3.org/2000/svg">
<path d="M0.582031 7.45325H5.39676V18.1466H15.5463V7.45325H20.3611V33.6799H15.5463V22.7732H5.39676V33.6799H0.582031V7.45325ZM35.6055 25.1466C35.6055 27.3466 33.8183 29.1332 31.6177 29.1332C29.417 29.1332 27.6298 27.3466 27.6298 25.1466V13.8532H23.0685V25.1466C23.0685 29.8532 26.9096 33.6932 31.6177 33.6932C36.3257 33.6932 40.1668 29.8666 40.1668 25.1466V13.8532H35.6055V25.1466ZM52.9038 13.9866C50.6365 13.9866 49.0627 14.6399 47.5289 16.1466V7.45325H42.9543V23.5466C42.9543 29.5732 47.3155 33.6932 52.197 33.6932C57.6385 33.6932 62.3999 29.4932 62.3999 23.8399C62.4132 18.2532 58.012 13.9866 52.9038 13.9866ZM53.0105 29.4532C49.903 29.4532 47.5423 26.8666 47.5423 23.8399C47.5423 20.8132 49.9163 18.2132 53.0105 18.2132C55.638 18.2132 58.012 20.7999 58.012 23.8399C58.012 26.8666 55.638 29.4532 53.0105 29.4532ZM70.0955 15.1332C70.0955 12.8266 71.6293 12.1066 73.3097 12.1066C74.6568 12.1066 76.444 13.1332 77.6177 14.3732L80.6052 10.8666C79.1114 8.85325 76.0839 7.46659 73.6032 7.46659C68.6417 7.46659 65.0674 10.3466 65.0674 15.1332C65.0674 23.9999 75.9772 21.1866 75.9772 26.1599C75.9772 27.6932 74.4834 29.0399 72.7629 29.0399C70.0555 29.0399 69.1885 27.7199 67.9482 26.3332L64.6272 29.7599C66.7478 32.3466 69.3753 33.6666 72.5095 33.6666C77.2175 33.6666 81.0186 30.7466 81.0186 26.1866C81.0053 16.3466 70.0955 19.3999 70.0955 15.1332ZM93.0621 13.7332C88.1674 13.7332 83.8195 17.8532 83.8195 23.8799V39.9999H88.3941V31.2799C89.9146 32.7732 91.5017 33.4399 93.769 33.4399C98.8772 33.4399 103.278 29.1732 103.278 23.5866C103.265 17.9199 98.5037 13.7332 93.0621 13.7332ZM93.8757 29.1999C90.7681 29.1999 88.4074 26.5999 88.4074 23.5732C88.4074 20.5466 90.7815 17.9466 93.8757 17.9466C96.5031 17.9466 98.8772 20.5332 98.8772 23.5732C98.8772 26.5999 96.5031 29.1999 93.8757 29.1999ZM136.968 29.4532C134.274 29.4532 133.501 28.2799 133.501 26.4932V18.5732H137.702V14.5599H133.501V9.27992L128.873 11.3599V27.4932C128.873 31.6132 131.713 33.6932 135.621 33.6932C136.208 33.6932 137.008 33.6532 137.448 33.5466L138.582 29.3866C138.062 29.4132 137.475 29.4532 136.968 29.4532Z" fill="#222222"/>
<path d="M124.884 18.8134C124.004 17.3068 122.777 16.0934 121.23 15.1868C120.083 14.5201 118.882 14.0934 117.535 13.9068V9.10679C118.882 8.53345 119.722 7.26679 119.722 5.78679C119.722 3.77345 118.109 2.14679 116.095 2.14679C114.081 2.14679 112.44 3.77345 112.44 5.78679C112.44 7.26679 113.227 8.53345 114.574 9.10679V13.9068C113.494 14.0668 112.374 14.4001 111.36 14.9201C109.266 13.3334 102.437 8.13345 98.4363 5.10679C98.5296 4.76012 98.6097 4.41345 98.6097 4.04012C98.6097 1.81345 96.8092 0.00012207 94.5686 0.00012207C92.3413 0.00012207 90.5273 1.81345 90.5273 4.04012C90.5273 6.26679 92.3413 8.08012 94.5686 8.08012C95.3288 8.08012 96.0356 7.85345 96.6357 7.49345L97.476 8.13345L109.079 16.4934C108.466 17.0534 107.892 17.6934 107.439 18.4134C106.519 19.8668 105.945 21.4801 105.945 23.2401V23.6134C105.945 24.8534 106.185 26.0134 106.585 27.1068C106.932 28.0668 107.452 28.9334 108.092 29.7201L104.238 33.5734C103.104 33.1468 101.811 33.4268 100.957 34.2934C100.37 34.8801 100.037 35.6668 100.05 36.5068C100.05 37.3468 100.37 38.1201 100.97 38.7068C101.557 39.2934 102.344 39.6268 103.171 39.6268C103.998 39.6268 104.798 39.2934 105.385 38.7068C105.972 38.1201 106.305 37.3334 106.305 36.5068C106.305 36.1868 106.252 35.8668 106.159 35.5734L110.133 31.6001C110.68 31.9734 111.267 32.2934 111.907 32.5734C113.161 33.1068 114.534 33.4401 116.041 33.4401H116.321C117.989 33.4401 119.562 33.0534 121.043 32.2534C122.603 31.4001 123.817 30.2534 124.737 28.7734C125.657 27.2934 126.178 25.6534 126.178 23.8534V23.7601C126.164 21.9468 125.751 20.3201 124.884 18.8134ZM120.029 27.1601C118.949 28.3601 117.709 29.0934 116.308 29.0934H116.081C115.281 29.0934 114.494 28.8668 113.734 28.4668C112.867 28.0268 112.214 27.3868 111.667 26.5868C111.107 25.8001 110.813 24.9468 110.813 24.0268V23.7468C110.813 22.8534 110.987 22.0001 111.413 21.2001C111.88 20.3201 112.507 19.6401 113.334 19.1068C114.147 18.5734 115.028 18.3068 115.988 18.3068H116.081C116.962 18.3068 117.789 18.4801 118.575 18.8801C119.376 19.3068 120.029 19.8934 120.536 20.6668C121.029 21.4401 121.323 22.2668 121.416 23.1734C121.43 23.3601 121.443 23.5601 121.443 23.7334C121.443 24.9868 120.963 26.1334 120.029 27.1601Z" fill="#F8761F"/>
</svg>
