<svg width="156" height="38" viewBox="0 0 156 38" fill="none" xmlns="http://www.w3.org/2000/svg">
<g clip-path="url(#clip0_2858_454)">
<path d="M41.0575 13.4668H56.6357V16.3839H50.4978V32.8134H47.1398V16.3839H41.0352L41.0575 13.4668ZM55.9685 18.8092H58.8484V21.5139H58.904C59.0041 21.1227 59.182 20.7651 59.4378 20.4074C59.6935 20.0498 60.0049 19.7145 60.3829 19.4239C60.7387 19.1109 61.1502 18.8874 61.6172 18.6974C62.0508 18.5186 62.5178 18.418 62.9737 18.418C63.3296 18.418 63.5853 18.4404 63.7187 18.4404C63.8522 18.4627 63.9967 18.4962 64.1301 18.4962V21.458C63.93 21.4021 63.6965 21.3798 63.463 21.3574C63.2295 21.3351 63.0293 21.3015 62.7958 21.3015C62.2843 21.3015 61.7951 21.4021 61.3281 21.6145C60.8611 21.8157 60.483 22.1286 60.1272 22.5198C59.7936 22.9333 59.5156 23.4251 59.3043 24.0174C59.1042 24.6098 58.993 25.3027 58.993 26.0851V32.7463H55.9129L55.9685 18.8092ZM78.2517 32.8134H75.2273V30.8575H75.1717C74.7825 31.584 74.2265 32.1204 73.4815 32.5563C72.7365 32.9922 71.9693 33.2046 71.2021 33.2046C69.3785 33.2046 68.0442 32.7687 67.2213 31.841C66.3985 30.9357 65.9871 29.5498 65.9871 27.7169V18.8204H69.0671V27.4151C69.0671 28.6557 69.3007 29.5275 69.7899 30.0192C70.2569 30.5334 70.9241 30.7904 71.7691 30.7904C72.4141 30.7904 72.9478 30.6898 73.3815 30.4775C73.8151 30.2763 74.182 30.0081 74.4378 29.6728C74.7158 29.3375 74.9048 28.9239 75.0271 28.4657C75.1606 27.9963 75.205 27.4822 75.205 26.9457V18.8204H78.2851V32.8246L78.2517 32.8134ZM83.489 28.3204C83.589 29.2257 83.9226 29.8404 84.5119 30.2316C85.1013 30.5892 85.824 30.7681 86.6469 30.7681C86.9248 30.7681 87.2584 30.7457 87.6254 30.6898C87.9812 30.634 88.3481 30.5557 88.6483 30.4328C88.9819 30.2987 89.2377 30.1198 89.4489 29.8628C89.6602 29.6057 89.7603 29.2928 89.7269 28.9128C89.7047 28.5216 89.5712 28.1863 89.2933 27.9292C89.0153 27.6722 88.6817 27.4933 88.2703 27.3145C87.8589 27.1581 87.3696 27.0351 86.8359 26.9233C86.3022 26.8116 85.7573 26.6886 85.1902 26.5657C84.6231 26.4316 84.056 26.2863 83.5223 26.0963C82.9886 25.9175 82.5216 25.6827 82.0879 25.3475C81.6765 25.0345 81.3207 24.6545 81.0872 24.1627C80.8314 23.671 80.698 23.101 80.698 22.3857C80.698 21.6145 80.8759 20.9886 81.2651 20.4745C81.6209 19.9604 82.1102 19.5468 82.6772 19.2339C83.2443 18.9209 83.8781 18.6974 84.5787 18.5633C85.2681 18.4292 85.9352 18.3845 86.5579 18.3845C87.2807 18.3845 87.9701 18.4627 88.615 18.6192C89.2599 18.7756 89.8715 19.0104 90.383 19.368C90.9167 19.7033 91.3615 20.1727 91.6951 20.7092C92.0509 21.2457 92.2621 21.9163 92.3622 22.6986H89.1487C88.993 21.9498 88.6595 21.458 88.148 21.201C87.6142 20.9439 87.0138 20.8098 86.3244 20.8098C86.1242 20.8098 85.8351 20.8321 85.5572 20.8657C85.2458 20.9215 84.9901 20.9663 84.7121 21.0668C84.4563 21.1674 84.2228 21.3239 84.0449 21.5027C83.867 21.6815 83.7669 21.9386 83.7669 22.2516C83.7669 22.6427 83.9004 22.9221 84.1561 23.1569C84.4119 23.3916 84.7454 23.5704 85.1791 23.7492C85.5905 23.9057 86.0798 24.0286 86.6135 24.1404C87.1472 24.241 87.7143 24.3751 88.2814 24.498C88.8485 24.6322 89.3822 24.7774 89.9271 24.9675C90.4719 25.1575 90.9501 25.381 91.3615 25.7163C91.7729 26.0292 92.1287 26.4092 92.3844 26.8786C92.6402 27.3481 92.7736 27.9404 92.7736 28.611C92.7736 29.4381 92.5957 30.131 92.2065 30.7234C91.8174 31.2934 91.3392 31.7851 90.7388 32.1428C90.1495 32.5004 89.4601 32.7575 88.7373 32.9475C87.9923 33.104 87.2695 33.2046 86.5579 33.2046C85.6906 33.2046 84.8678 33.104 84.1228 32.8916C83.3778 32.6793 82.7106 32.3775 82.1769 31.9863C81.6431 31.5728 81.1984 31.081 80.8981 30.4663C80.5868 29.8739 80.4089 29.1475 80.3867 28.2981H83.489V28.3204ZM93.6187 18.8092H95.9538V14.5733H99.0338V18.7756H101.802V21.0668H99.0338V28.5439C99.0338 28.8792 99.0561 29.1363 99.0894 29.3934C99.1117 29.6281 99.1895 29.8292 99.2673 29.9857C99.3674 30.1422 99.5231 30.2651 99.701 30.3434C99.9011 30.4216 100.168 30.4775 100.524 30.4775C100.724 30.4775 100.957 30.4775 101.169 30.4551C101.38 30.4328 101.602 30.3992 101.814 30.3545V32.7575C101.48 32.8134 101.146 32.8357 100.813 32.8581C100.479 32.914 100.168 32.914 99.8122 32.914C98.9893 32.914 98.3444 32.8357 97.8663 32.6793C97.377 32.5228 96.999 32.2881 96.7099 32.0087C96.4319 31.6957 96.2429 31.3381 96.1428 30.9022C96.0427 30.4663 95.9871 29.9187 95.9649 29.3598V21.1004H93.6298V18.7533L93.6187 18.8092ZM103.96 18.8092H106.862V20.7204H106.917C107.351 19.8933 107.94 19.3233 108.719 18.9657C109.497 18.608 110.309 18.4292 111.232 18.4292C112.332 18.4292 113.289 18.608 114.112 19.0215C114.934 19.4127 115.602 19.9268 116.135 20.6198C116.669 21.2904 117.08 22.0951 117.336 22.9892C117.592 23.8945 117.748 24.8669 117.748 25.8839C117.748 26.8339 117.614 27.7392 117.392 28.6222C117.136 29.4939 116.78 30.2987 116.291 30.9692C115.802 31.6398 115.19 32.1763 114.423 32.5898C113.656 33.0034 112.777 33.2046 111.754 33.2046C111.321 33.2046 110.854 33.1487 110.42 33.0704C109.986 32.9922 109.553 32.8693 109.141 32.6793C108.73 32.5004 108.341 32.2657 108.007 31.9863C107.651 31.7069 107.362 31.3716 107.14 31.0028H107.084V37.9993H103.993V18.8092H103.96ZM114.723 25.828C114.723 25.2133 114.645 24.5874 114.467 23.9951C114.312 23.4027 114.056 22.8886 113.722 22.4192C113.389 21.9498 112.977 21.5921 112.522 21.3127C112.032 21.0333 111.465 20.8992 110.854 20.8992C109.575 20.8992 108.596 21.3351 107.929 22.2404C107.284 23.1457 106.951 24.3527 106.951 25.8504C106.951 26.5769 107.029 27.2139 107.206 27.8063C107.384 28.3986 107.618 28.9128 107.974 29.3487C108.307 29.7845 108.719 30.1198 109.208 30.3769C109.697 30.634 110.231 30.7681 110.876 30.7681C111.599 30.7681 112.155 30.6116 112.644 30.3322C113.133 30.0528 113.511 29.6616 113.845 29.2257C114.156 28.7563 114.378 28.2422 114.512 27.6498C114.645 27.0351 114.723 26.4428 114.723 25.828ZM120.138 13.4668H123.218V16.3839H120.138V13.4668ZM120.138 18.8092H123.218V32.8134H120.138V18.8092ZM125.965 13.4668H129.045V32.8134H125.965V13.4668ZM138.43 33.2046C137.329 33.2046 136.328 33.0257 135.45 32.6346C134.582 32.2434 133.86 31.7628 133.237 31.1145C132.648 30.4663 132.181 29.6728 131.88 28.7675C131.569 27.8622 131.391 26.8563 131.391 25.8057C131.391 24.7551 131.547 23.7716 131.88 22.8663C132.192 21.961 132.648 21.1898 133.237 20.5192C133.826 19.871 134.571 19.3568 135.45 18.9992C136.328 18.6415 137.318 18.4292 138.43 18.4292C139.53 18.4292 140.531 18.608 141.41 18.9992C142.277 19.3568 143 19.871 143.622 20.5192C144.212 21.1674 144.679 21.961 144.979 22.8663C145.29 23.7716 145.468 24.7439 145.468 25.8057C145.468 26.8898 145.313 27.8733 144.979 28.7675C144.645 29.6616 144.212 30.444 143.622 31.1145C143.033 31.7628 142.288 32.2769 141.41 32.6346C140.542 32.9922 139.564 33.2046 138.43 33.2046ZM138.43 30.7457C139.097 30.7457 139.708 30.5892 140.198 30.3098C140.709 30.0304 141.098 29.6392 141.432 29.1698C141.765 28.7004 141.999 28.1639 142.155 27.5939C142.31 27.0016 142.388 26.4092 142.388 25.7833C142.388 25.191 142.31 24.5986 142.155 24.0063C141.999 23.4139 141.765 22.8998 141.432 22.4304C141.098 21.961 140.687 21.6033 140.198 21.3239C139.686 21.0445 139.097 20.888 138.43 20.888C137.762 20.888 137.151 21.0445 136.662 21.3239C136.15 21.6033 135.761 21.9945 135.427 22.4304C135.094 22.8998 134.86 23.4139 134.705 24.0063C134.549 24.5986 134.471 25.191 134.471 25.7833C134.471 26.398 134.549 26.9904 134.705 27.5939C134.86 28.1863 135.094 28.7004 135.427 29.1698C135.761 29.6392 136.172 30.0192 136.662 30.3098C137.173 30.6228 137.762 30.7457 138.43 30.7457ZM146.391 18.8092H148.726V14.5733H151.806V18.7756H154.575V21.0668H151.806V28.5439C151.806 28.8792 151.828 29.1363 151.862 29.3934C151.884 29.6281 151.962 29.8292 152.04 29.9857C152.14 30.1422 152.295 30.2651 152.473 30.3434C152.674 30.4216 152.94 30.4775 153.296 30.4775C153.496 30.4775 153.73 30.4775 153.941 30.4551C154.141 30.4328 154.375 30.3992 154.586 30.3545V32.7575C154.252 32.8134 153.919 32.8357 153.585 32.8581C153.252 32.914 152.94 32.914 152.585 32.914C151.762 32.914 151.117 32.8357 150.639 32.6793C150.161 32.5228 149.771 32.2881 149.482 32.0087C149.204 31.6957 149.015 31.3381 148.915 30.9022C148.815 30.4663 148.76 29.9187 148.737 29.3598V21.1004H146.402V18.7533V18.8092H146.391Z" fill="#222222"/>
<path d="M37.4649 13.4677H23.3767L19.0401 0L14.6814 13.4677L0.582031 13.4454L11.9793 21.7831L7.60947 35.2396L19.0068 26.9019L30.4041 35.2396L26.0676 21.7719L37.4649 13.4677Z" fill="#00B67A"/>
<path d="M27.049 24.8232L26.0705 21.7832L19.043 26.9132L27.049 24.8232Z" fill="#005128"/>
</g>
<defs>
<clipPath id="clip0_2858_454">
<rect width="155" height="38" fill="white" transform="translate(0.582031)"/>
</clipPath>
</defs>
</svg>
