<svg width="142" height="40" viewBox="0 0 142 40" fill="none" xmlns="http://www.w3.org/2000/svg">
<path d="M110.387 21.0524V30.1352H106.379V16.8565H109.181L110.018 17.908C112.899 15.6949 116.259 16.2757 117.815 18.3186L118.553 17.7478C120.158 16.5161 121.933 16.2056 123.847 16.7264C125.043 17.0468 125.961 17.7878 126.379 18.9695C126.688 19.8808 126.958 20.8421 126.988 21.7835C127.067 24.4572 127.027 27.131 127.027 29.7948C127.018 29.9249 126.998 30.0451 126.978 30.1553H122.97V27.842V23.5259C122.97 23.2656 122.97 22.9952 122.94 22.7348C122.77 20.712 121.634 19.9509 119.699 20.5718C119.35 20.702 119.031 20.8522 118.702 21.0224V30.1452H114.624V29.1939V23.3857V23.1254C114.575 20.5918 113.019 19.6905 110.766 20.8421C110.666 20.8722 110.576 20.9423 110.387 21.0524Z" fill="#222222"/>
<path d="M70.8772 12.3511H75.0847C75.1146 12.5614 75.1345 12.7316 75.1345 12.8918C75.1246 16.3767 75.1246 19.8817 75.0847 23.3766C75.0747 24.0275 74.9949 24.6584 74.8554 25.2993C74.2472 28.0732 72.5721 29.7656 69.7505 30.2963C67.8562 30.6769 65.892 30.6468 64.0176 30.2062C61.4253 29.5853 59.8201 27.6226 59.4811 24.7085C59.3614 23.5668 59.3016 22.4252 59.3016 21.2836C59.2717 18.6099 59.2916 15.9361 59.2916 13.2724V12.3611H63.529V13.3625C63.529 16.2465 63.4991 19.1206 63.539 22.0046C63.549 22.8258 63.6686 23.6369 63.878 24.4281C64.1273 25.3994 64.8052 26.1104 65.8122 26.2606C66.7594 26.4008 67.7266 26.4008 68.6638 26.2606C69.8303 26.0804 70.4285 25.1791 70.6678 24.0676C70.7974 23.4066 70.8572 22.7357 70.8572 22.0547C70.8971 18.8502 70.8772 15.6457 70.8772 12.3511ZM90.1698 30.1661H87.6772L86.9394 29.2448C85.5436 30.2563 83.9782 30.5767 82.2932 30.4666C79.5913 30.2763 77.7069 28.7642 76.989 26.1505C76.5204 24.5082 76.5204 22.7657 76.999 21.1134C77.7767 18.4396 80.01 16.6371 82.7818 16.5369C83.8785 16.4969 84.9753 16.6371 86.1418 16.7172V11.2695H90.1698V30.1661ZM86.1318 26.3207V20.4424C85.8826 20.3223 85.6632 20.1921 85.4239 20.122C83.37 19.391 81.5156 20.2121 80.9772 22.1048C80.8475 22.5154 80.7877 22.956 80.7877 23.4066C80.8176 24.7085 81.037 25.9702 82.3232 26.6412C83.6093 27.2821 84.9154 27.1118 86.1318 26.3207Z" fill="#222222"/>
<path d="M104.634 24.1179H96.2983C96.069 25.3095 96.8168 26.5012 98.0631 26.8918C99.4689 27.3324 100.895 27.1922 102.291 26.7616C102.869 26.5813 103.417 26.3109 104.035 26.0506L103.507 29.175C102.639 29.926 101.613 30.2365 100.526 30.3667C99.0701 30.5369 97.6044 30.4968 96.1887 30.0462C94.2544 29.4153 92.9383 28.1235 92.3401 26.1707C91.8117 24.4483 91.7818 22.6057 92.2902 20.8833C92.9981 18.3698 95.0321 16.7074 97.6343 16.5372C98.3622 16.4771 99.09 16.4871 99.8179 16.5872C101.822 16.9077 103.218 18.0693 103.966 19.962C104.494 21.2538 104.683 22.6358 104.634 24.1179ZM96.1986 22.105H101.284C101.164 20.4226 99.9774 19.6115 98.8308 19.6115C97.3652 19.6315 96.408 20.5028 96.1986 22.105Z" fill="#222222"/>
<path d="M131.647 16.8577C132.155 18.2997 132.644 19.7217 133.142 21.1537C133.631 22.5958 134.119 24.0378 134.688 25.6801L137.579 16.8477H141.587L134.598 34.6327H130.54L132.464 29.7058L127.16 16.8677H131.647V16.8577Z" fill="#222222"/>
<path d="M31.9402 19.7311L31.362 20.9328C29.5274 25.0486 27.5234 29.0742 24.9211 32.7795C23.5352 34.7422 21.9998 36.5448 20.0556 37.9668C18.3008 39.2386 16.3666 40.0196 14.1631 39.9996C11.7702 39.9896 9.84597 38.9982 8.43018 37.0655C7.13403 35.303 6.62554 33.2601 6.46602 31.1071C6.25664 28.223 6.74519 25.4291 7.39326 22.6552C7.55279 22.0043 7.67243 21.3534 7.84193 20.5923C7.26365 20.9328 6.76513 21.2232 6.27658 21.4836C5.44904 21.9342 4.57165 22.2146 3.61449 22.1845C1.75004 22.1044 0.533656 20.7325 0.583508 18.7998C1.96939 17.5981 3.35527 16.5065 4.60156 15.2448C7.89178 11.9101 10.4143 8.0246 12.3385 3.74858C12.6077 3.11769 12.9367 2.48681 13.2857 1.89597C14.203 0.413887 15.6786 -0.247043 17.1941 0.0834218C18.6498 0.393859 19.567 1.49541 19.8661 3.25789C20.255 5.53109 19.7864 7.72418 19.2679 9.89724C18.231 14.1733 17.1542 18.4593 16.1472 22.7553C15.6587 24.8583 15.3895 27.0013 15.529 29.1644C15.5689 29.7953 15.6985 30.4362 15.9079 31.037C16.3466 32.2087 17.3636 32.4991 18.3207 31.6979C18.919 31.1772 19.4474 30.6064 19.926 29.9855C22.6279 26.5507 24.8414 22.7954 26.8354 18.9199C28.5304 15.6153 30.1954 12.2906 31.8804 8.98596C32.1596 8.41515 32.4986 7.87439 32.8276 7.32362C34.0938 5.23067 37.1747 5.42094 38.421 7.48384C39.089 8.59541 39.418 9.84717 39.5077 11.129C39.6075 12.4608 39.6374 13.8027 39.6872 15.1346C39.8069 18.0387 39.9066 20.9428 40.0461 23.8469C40.086 24.3876 40.2057 24.9384 40.4051 25.4592C40.784 26.4305 41.4918 26.791 42.4889 26.5006C43.0472 26.3404 43.5757 26.1001 44.0343 25.7596C45.3504 24.7582 46.6066 23.6967 47.9726 22.5851C48.5409 22.7553 48.8799 23.2561 49.0693 23.897C49.4283 25.0986 49.1989 26.2703 48.7602 27.3819C47.5339 30.5163 45.1011 32.2888 41.9405 32.9898C40.7241 33.2401 39.4778 33.2902 38.2315 33.1199C35.8187 32.8195 34.2035 31.3575 33.2563 29.1243C32.3789 27.0514 32.1696 24.8583 32.0798 22.6352C32.04 21.6838 32.0798 20.7425 32.0798 19.7812L31.9402 19.7311Z" fill="#EC5250"/>
</svg>
