<svg width="136" height="40" viewBox="0 0 136 40" fill="none" xmlns="http://www.w3.org/2000/svg">
<path fill-rule="evenodd" clip-rule="evenodd" d="M2.17144 18.4V1.44998H8.33014C9.63564 1.44998 10.4727 1.72998 11.2202 2.00998C12.9043 2.84998 13.6518 4.44998 13.6518 5.84998C13.6518 7.43998 12.994 8.56998 11.6885 9.40998C13.6518 9.87998 14.7679 11.19 14.7679 13.25C14.7679 15.59 13.3628 17.28 11.0308 18.03C10.1937 18.31 9.25694 18.4 7.86184 18.4H2.17144ZM9.72534 4.34998C9.25694 4.15998 8.78864 4.06998 8.14084 4.06998H4.97174V8.46997H7.96144C8.79854 8.46997 9.36664 8.37998 9.82504 8.09998C10.4628 7.73997 10.8614 7.05998 10.8514 6.31998C10.8514 5.47998 10.383 4.72998 9.72534 4.34998ZM10.5724 11.38C10.2037 11.19 9.63564 11.1 8.70884 11.1H4.97174V15.78H8.42984C9.54594 15.78 10.114 15.59 10.5724 15.41C11.4095 15.04 11.7882 14.29 11.7882 13.35C11.7882 12.41 11.4095 11.75 10.5724 11.38ZM31.5699 18.4V1.44998H34.4599V18.41H31.5699V18.4ZM52.5773 18.4V1.44998H55.4676V18.41H52.5773V18.4ZM64.7156 1.34998C66.5786 1.34998 68.4526 1.81998 69.4786 2.28998L69.3896 5.09998C67.8946 4.34998 66.4996 3.87998 64.7256 3.87998C63.1406 3.87998 61.7356 4.34998 61.7356 5.65998C61.7356 9.12998 70.4156 7.71998 70.4156 13.43C70.4156 16.61 67.8046 18.58 63.8786 18.58C61.2676 18.58 59.4936 17.83 58.1776 17.08L59.3936 14.74C60.4206 15.4 62.1046 16.05 63.9676 16.05C65.7416 16.05 67.3266 15.39 67.3266 13.9C67.3266 10.25 58.7356 11.84 58.7356 6.11998C58.7356 3.03998 61.1676 1.34998 64.7156 1.34998ZM84.0386 18.4V11.09H75.9166V18.4H73.0266V1.44998H75.9166V8.37998H84.0386V1.44998H86.9286V18.41H84.0386V18.4ZM8.51954 21.31C10.2934 21.31 11.6885 21.68 13.1834 22.34L12.3463 24.78C11.5092 24.4 10.383 23.94 8.79854 23.94C5.62954 23.94 3.66624 26.66 3.66624 29.94C3.66624 33.31 5.52984 36.03 8.79854 36.03C10.383 36.03 11.5092 35.56 12.3463 35.19L13.1834 37.62C11.6885 38.28 10.2934 38.65 8.51954 38.65C3.47694 38.65 0.58694 35.09 0.58694 30.03C0.57694 25.24 3.47694 21.31 8.51954 21.31ZM71.6216 21.31C73.4856 21.31 74.8906 21.68 76.2856 22.34L75.4486 24.78C74.6116 24.4 73.4856 23.94 71.9006 23.94C68.7216 23.94 66.7686 26.66 66.7686 29.94C66.7686 33.31 68.6316 36.03 71.9006 36.03C73.4856 36.03 74.6116 35.56 75.4486 35.19L76.2856 37.62C74.8906 38.28 73.4856 38.65 71.6216 38.65C66.5786 38.65 63.6886 35.09 63.6886 30.03C63.6886 25.24 66.5786 21.31 71.6216 21.31ZM29.6166 29.93C29.6166 34.99 26.4476 38.64 21.684 38.64C16.9205 38.64 13.7514 35.08 13.7514 30.02C13.7514 24.96 16.9304 21.31 21.684 21.31C26.5373 21.31 29.6166 24.87 29.6166 29.93ZM26.627 29.93C26.627 26.28 24.4844 23.93 21.684 23.93C18.8837 23.93 16.7411 26.27 16.7411 30.02C16.7411 33.67 18.8837 36.02 21.684 36.02C24.4744 36.01 26.627 33.67 26.627 29.93ZM31.5699 31.99V21.5H34.4599V32.09C34.4599 34.99 35.9547 36.02 38.3764 36.02C40.798 36.02 42.2929 34.99 42.2929 32.09V21.5H45.1829V31.99C45.1829 36.58 42.5719 38.64 38.3664 38.64C34.1908 38.64 31.5699 36.58 31.5699 31.99ZM50.6141 26.09H50.5244C50.6141 26.65 50.6141 27.59 50.6141 28.34V38.36H47.7241V21.5H50.9031L58.6466 33.02H58.7356C58.6466 32.46 58.6466 31.52 58.6466 30.77V21.5H61.5366V38.36H59.0156L50.6141 26.09ZM78.5276 38.36V21.5H81.4176V38.36H78.5276ZM84.0386 38.36V21.5H86.9286V35.74H93.5556V38.36H84.0386ZM50.3351 1.53998H36.7121V4.15998H42.1234V18.4H45.0135V4.16998H50.3351V1.53998ZM26.4376 18.4C24.006 13.25 23.3582 11.84 22.3318 11.84H19.6211V18.4H16.7311V1.53998H22.4215C26.8063 1.53998 28.4008 3.78998 28.4008 6.31998C28.4008 8.65998 27.185 10.16 25.3215 10.72C26.0689 11.19 26.906 12.78 29.7063 18.4H26.4376ZM22.6108 4.06998H19.6211V9.21997H22.5112C24.5641 9.21997 25.5008 8.18998 25.5008 6.59998C25.5008 5.19998 24.6637 4.06998 22.6108 4.06998Z" fill="#222222"/>
<path fill-rule="evenodd" clip-rule="evenodd" d="M114.879 9.65002C114.879 14.99 110.494 19.3 105.172 19.3C99.9405 19.3 95.5557 14.99 95.5557 9.65002C95.5557 4.31002 99.9405 1.73662e-05 105.172 1.73662e-05C110.494 1.73662e-05 114.879 4.31002 114.879 9.65002ZM135.418 9.65002C135.428 14.97 131.133 19.29 125.831 19.3C125.821 19.3 125.811 19.3 125.801 19.3C120.48 19.3 116.184 14.99 116.184 9.65002C116.184 4.31002 120.48 1.73662e-05 125.801 1.73662e-05C131.103 -0.00998263 135.408 4.30002 135.418 9.62002C135.418 9.63002 135.418 9.64002 135.418 9.65002ZM114.879 30.35C114.879 35.69 110.494 40 105.172 40C99.9405 40 95.5557 35.69 95.5557 30.35C95.5557 25.01 99.9405 20.7 105.172 20.7C110.494 20.7 114.879 25.01 114.879 30.35ZM135.418 30.35C135.428 35.67 131.133 39.99 125.831 40C125.821 40 125.811 40 125.801 40C120.5 40.01 116.194 35.7 116.184 30.38C116.184 30.37 116.184 30.36 116.184 30.35C116.174 25.03 120.47 20.71 125.771 20.7C125.781 20.7 125.791 20.7 125.801 20.7C131.103 20.69 135.408 25 135.418 30.32C135.418 30.33 135.418 30.34 135.418 30.35Z" fill="#00A0E2"/>
</svg>
