<svg width="138" height="41" viewBox="0 0 138 41" fill="none" xmlns="http://www.w3.org/2000/svg">
<path d="M0 7.95312H4.81473V18.6465H14.9643V7.95312H19.7791V34.1798H14.9643V23.2731H4.81473V34.1798H0V7.95312ZM35.0235 25.6465C35.0235 27.8465 33.2363 29.6331 31.0357 29.6331C28.835 29.6331 27.0478 27.8465 27.0478 25.6465V14.3531H22.4865V25.6465C22.4865 30.3531 26.3276 34.1931 31.0357 34.1931C35.7437 34.1931 39.5848 30.3665 39.5848 25.6465V14.3531H35.0235V25.6465ZM52.3218 14.4865C50.0545 14.4865 48.4807 15.1398 46.9469 16.6465V7.95312H42.3723V24.0465C42.3723 30.0731 46.7335 34.1931 51.615 34.1931C57.0565 34.1931 61.8179 29.9931 61.8179 24.3398C61.8312 18.7531 57.43 14.4865 52.3218 14.4865ZM52.4285 29.9531C49.321 29.9531 46.9603 27.3665 46.9603 24.3398C46.9603 21.3131 49.3343 18.7131 52.4285 18.7131C55.056 18.7131 57.43 21.2998 57.43 24.3398C57.43 27.3665 55.056 29.9531 52.4285 29.9531ZM69.5135 15.6331C69.5135 13.3265 71.0473 12.6065 72.7277 12.6065C74.0748 12.6065 75.862 13.6331 77.0357 14.8731L80.0232 11.3665C78.5294 9.35312 75.5019 7.96646 73.0212 7.96646C68.0597 7.96646 64.4854 10.8465 64.4854 15.6331C64.4854 24.4998 75.3952 21.6865 75.3952 26.6598C75.3952 28.1931 73.9014 29.5398 72.1809 29.5398C69.4735 29.5398 68.6065 28.2198 67.3662 26.8331L64.0452 30.2598C66.1658 32.8465 68.7933 34.1665 71.9275 34.1665C76.6355 34.1665 80.4366 31.2465 80.4366 26.6865C80.4233 16.8465 69.5135 19.8998 69.5135 15.6331ZM92.4801 14.2331C87.5854 14.2331 83.2375 18.3531 83.2375 24.3798V40.4998H87.8121V31.7798C89.3326 33.2731 90.9197 33.9398 93.187 33.9398C98.2952 33.9398 102.696 29.6731 102.696 24.0865C102.683 18.4198 97.9217 14.2331 92.4801 14.2331ZM93.2937 29.6998C90.1861 29.6998 87.8254 27.0998 87.8254 24.0731C87.8254 21.0465 90.1995 18.4465 93.2937 18.4465C95.9211 18.4465 98.2952 21.0331 98.2952 24.0731C98.2952 27.0998 95.9211 29.6998 93.2937 29.6998ZM136.386 29.9531C133.692 29.9531 132.919 28.7798 132.919 26.9931V19.0731H137.12V15.0598H132.919V9.77979L128.291 11.8598V27.9931C128.291 32.1131 131.131 34.1931 135.039 34.1931C135.626 34.1931 136.426 34.1531 136.866 34.0465L138 29.8865C137.48 29.9131 136.893 29.9531 136.386 29.9531Z" fill="white"/>
<path d="M124.302 19.3133C123.422 17.8067 122.195 16.5933 120.648 15.6867C119.501 15.02 118.3 14.5933 116.953 14.4067V9.60667C118.3 9.03333 119.14 7.76667 119.14 6.28667C119.14 4.27333 117.527 2.64667 115.513 2.64667C113.499 2.64667 111.858 4.27333 111.858 6.28667C111.858 7.76667 112.645 9.03333 113.992 9.60667V14.4067C112.912 14.5667 111.792 14.9 110.778 15.42C108.684 13.8333 101.855 8.63333 97.8543 5.60667C97.9476 5.26 98.0277 4.91333 98.0277 4.54C98.0277 2.31333 96.2271 0.5 93.9865 0.5C91.7592 0.5 89.9453 2.31333 89.9453 4.54C89.9453 6.76667 91.7592 8.58 93.9865 8.58C94.7467 8.58 95.4536 8.35333 96.0537 7.99333L96.894 8.63333L108.497 16.9933C107.884 17.5533 107.31 18.1933 106.857 18.9133C105.937 20.3667 105.363 21.98 105.363 23.74V24.1133C105.363 25.3533 105.603 26.5133 106.003 27.6067C106.35 28.5667 106.87 29.4333 107.51 30.22L103.656 34.0733C102.522 33.6467 101.229 33.9267 100.375 34.7933C99.7882 35.38 99.4547 36.1667 99.4681 37.0067C99.4681 37.8467 99.7882 38.62 100.388 39.2067C100.975 39.7933 101.762 40.1267 102.589 40.1267C103.416 40.1267 104.216 39.7933 104.803 39.2067C105.39 38.62 105.723 37.8333 105.723 37.0067C105.723 36.6867 105.67 36.3667 105.577 36.0733L109.551 32.1C110.098 32.4733 110.685 32.7933 111.325 33.0733C112.579 33.6067 113.952 33.94 115.459 33.94H115.739C117.407 33.94 118.98 33.5533 120.461 32.7533C122.021 31.9 123.235 30.7533 124.155 29.2733C125.075 27.7933 125.596 26.1533 125.596 24.3533V24.26C125.582 22.4467 125.169 20.82 124.302 19.3133ZM119.447 27.66C118.367 28.86 117.127 29.5933 115.726 29.5933H115.499C114.699 29.5933 113.912 29.3667 113.152 28.9667C112.285 28.5267 111.632 27.8867 111.085 27.0867C110.525 26.3 110.231 25.4467 110.231 24.5267V24.2467C110.231 23.3533 110.405 22.5 110.831 21.7C111.298 20.82 111.925 20.14 112.752 19.6067C113.565 19.0733 114.446 18.8067 115.406 18.8067H115.499C116.38 18.8067 117.207 18.98 117.993 19.38C118.794 19.8067 119.447 20.3933 119.954 21.1667C120.447 21.94 120.741 22.7667 120.834 23.6733C120.848 23.86 120.861 24.06 120.861 24.2333C120.861 25.4867 120.381 26.6333 119.447 27.66Z" fill="#F8761F"/>
</svg>
