<svg width="180" height="50" viewBox="0 0 180 50" fill="none" xmlns="http://www.w3.org/2000/svg">
<g clip-path="url(#clip0_3090_188)">
<path d="M90.9466 20.6659C91.0522 18.6471 91.7696 17.0023 92.895 15.7176V14.0023H91.3968C88.3723 14.0023 85.8119 15.1671 84.3208 17.7929H84.2364V14.2918H76.478V35.6518H84.2364V27.0259C84.2364 23.3694 85.3055 20.5741 89.6102 20.5741C90.0815 20.5812 90.5246 20.6094 90.9466 20.6659ZM149.686 20.5882C150.333 18.7035 151.374 17.0165 152.732 15.6682V14.0023H151.241C148.216 14.0023 145.656 15.1671 144.165 17.7929H144.08V14.2918H136.315V35.6518H144.08V27.0259C144.08 23.3694 145.15 20.5741 149.454 20.5741L149.686 20.5882ZM106.702 19.7835C105.507 19.1624 103.84 18.7459 102.517 18.7459C101.624 18.7459 100.091 19.12 100.091 20.2C100.091 21.6612 102.517 21.8659 103.593 22.0777C107.209 22.7835 109.945 24.4494 109.945 28.4024C109.945 34.0212 104.698 36.3576 99.6194 36.3576C96.5034 36.3576 93.4437 35.4824 90.7919 33.9012L93.6054 28.6071C95.181 29.6941 97.8258 30.7741 99.746 30.7741C100.731 30.7741 102.18 30.3153 102.18 29.1506C102.18 27.4847 99.746 27.4 97.3123 26.7718C94.8856 26.1506 92.4589 24.9859 92.4589 21.1529C92.4589 15.9082 97.3123 13.5788 102.095 13.5788C104.571 13.5788 107.04 13.9529 109.298 14.9482L106.702 19.7835ZM176 35.6518H168.242V33.2729H168.157C166.793 35.3976 164.099 36.3506 161.545 36.3506C155.06 36.3506 150.502 31.0635 150.502 24.9435C150.502 18.8306 154.983 13.5788 161.461 13.5788C163.972 13.5788 166.624 14.4965 168.242 16.3671V14.2918H176V35.6518ZM158.521 24.9929C158.521 27.6965 160.357 29.7788 163.508 29.7788C166.659 29.7788 168.488 27.7035 168.488 24.9929C168.488 22.3671 166.659 20.1647 163.508 20.1647C160.357 20.1647 158.521 22.3671 158.521 24.9929ZM135.091 26.2424H118.758C118.758 29.32 120.426 30.9859 123.619 30.9859C125.279 30.9859 126.475 30.4494 127.326 29.0306H134.789C133.551 34.0706 128.648 36.3576 123.661 36.3576C116.416 36.3576 111 32.3553 111 24.9929C111 17.8776 115.98 13.5859 123.105 13.5859C130.695 13.5859 135.091 18.1671 135.091 25.4518V26.2424ZM127.888 21.8659C127.502 19.8259 125.581 18.4918 123.499 18.4918C121.234 18.4918 119.37 19.6565 118.892 21.8659H127.888ZM51.8033 24.6188C51.7962 24.4353 51.7822 24.2518 51.7681 24.0753V24.0682C51.5922 22.0847 50.9451 20.2353 49.8338 18.5553C49.3484 17.8141 48.7787 17.1365 48.1457 16.5224C47.2242 15.6329 46.1551 14.8918 44.9453 14.3129C43.1376 13.4376 41.1329 13 38.9946 13C38.7836 13 38.5655 13 38.3475 13.0141C36.8493 13.0847 35.3933 13.3671 34.0287 13.8753C32.6571 14.3694 31.4543 15.0259 30.4766 15.8235C30.2797 15.9859 30.0616 16.1765 29.8295 16.3953L29.6607 16.5577L29.4286 16.8047L29.3231 16.9106L29.2738 16.9671L28.9995 17.2565C28.8026 17.4824 28.6126 17.7082 28.4227 17.9412L28.4157 17.9341C28.0429 18.3788 27.6912 18.8588 27.438 19.2824C27.2621 19.5577 27.0933 19.8329 26.9316 20.1153L24.6948 24.6541L24.5752 24.8871L24.329 25.3882C23.8367 26.3835 23.3162 27.3788 22.7253 28.1976C21.417 29.6376 19.9329 30.3435 18.0337 30.3435C17.9001 30.3435 17.7664 30.3365 17.6258 30.3294C16.4792 30.28 15.4945 30.0118 14.6223 29.4965C14.5309 29.44 14.4394 29.3835 14.348 29.3271C13.6376 28.8541 13.0889 28.24 12.681 27.4776C12.2167 26.6165 12.0128 25.7341 12.0479 24.7953C12.0479 24.7671 12.0479 24.7459 12.0479 24.7247C12.1112 23.2353 12.6739 22.0776 13.8134 21.0823C14.0877 20.8494 14.3761 20.6377 14.6856 20.4612C14.7278 20.4329 14.77 20.4118 14.8122 20.3906C15.6563 19.9247 16.6199 19.6988 17.7242 19.6988L18.0689 19.7059C19.8203 19.7694 21.1708 20.32 22.254 21.3929L25.6373 15.3012C24.8284 14.7647 23.9211 14.2918 22.9082 13.9176C22.873 13.9035 22.8308 13.8894 22.7886 13.8753C22.669 13.8329 22.5495 13.7906 22.4229 13.7482C21.3537 13.3882 20.2283 13.1694 19.0747 13.0706C19.0466 13.0635 19.0114 13.0635 18.9833 13.0565C18.8075 13.0424 18.6246 13.0212 18.4487 13.0141C18.2658 13.0071 18.0759 13 17.879 13H17.7664C15.6422 13.0071 13.6657 13.4447 11.858 14.3129C9.83929 15.2871 8.2004 16.7129 6.98355 18.5482C5.77372 20.3835 5.10551 22.4235 5.01407 24.6118C5.00703 24.8024 5 24.9859 5 25.1694C5 28.2259 6.11135 30.9224 8.31998 33.1812C10.6271 35.5529 13.6305 36.8306 17.2319 36.9788C17.464 36.9859 17.6891 36.9929 17.9212 36.9929C19.961 36.9929 21.8461 36.6259 23.5342 35.8988C23.9562 35.7153 24.3642 35.5035 24.7862 35.2706C25.0113 35.1365 25.2294 34.9953 25.4404 34.8471L25.6022 34.7412L25.8694 34.5576C26.186 34.3247 26.4884 34.0776 26.7768 33.8094L26.8753 33.7106C27.0441 33.5482 27.2129 33.3788 27.3817 33.2094L27.9866 32.5247L28.2187 32.2353L28.3243 32.08L28.4298 31.9247C29.3301 30.4071 32.2632 24.88 32.2632 24.88V24.8659L32.4391 24.5271L32.5868 24.2659C33.0158 23.4753 33.3324 22.9176 33.7474 22.3247L33.7614 22.3106C34.7251 20.9059 36.3851 19.9106 38.3405 19.7412C41.6182 19.4588 44.4881 21.6188 44.7553 24.5694C45.0156 27.52 42.5748 30.1388 39.2971 30.4212C38.6148 30.4776 37.9536 30.4353 37.3276 30.2941L37.3135 30.3012C34.9079 29.8 33.3746 28.0353 32.6219 27.2518L29.4708 33.0753C29.4708 33.0753 30.4485 34.0635 31.1237 34.5647C31.799 35.0588 32.6641 35.5459 33.3605 35.8494C35.0416 36.5694 36.8704 37 38.8961 37C39.1283 37 39.0861 37 39.3252 36.9929C42.9265 36.8447 46.134 35.4612 48.4481 33.0894C50.6427 30.8376 51.8314 28.2682 51.8384 25.2259V25.1341C51.8173 24.9576 51.8103 24.7882 51.8033 24.6188ZM63.8733 36.3718C62.2345 36.3718 60.7574 36.1812 59.4209 35.8C58.0845 35.4188 56.952 34.8188 56.0095 33.9929C55.067 33.1671 54.3354 32.1153 53.822 30.8376C53.3085 29.56 53.0553 28.0212 53.0553 26.2282V14.2847H60.5393V26.1294C60.5393 27.4706 60.8558 28.4447 61.4959 29.0518C62.136 29.6588 62.9449 29.9624 63.9296 29.9624C64.9355 29.9624 65.7514 29.68 66.3844 29.1153C67.0104 28.5506 67.327 27.6047 67.327 26.2847V14.2847H74.811V26.0659C74.811 27.9224 74.5507 29.4965 74.0232 30.7953C73.4957 32.0941 72.7571 33.16 71.8075 33.9859C70.8509 34.8118 69.6974 35.4118 68.3469 35.7929C66.9964 36.1812 65.5052 36.3718 63.8733 36.3718Z" fill="white"/>
</g>
<defs>
<clipPath id="clip0_3090_188">
<rect width="171" height="24" fill="white" transform="translate(5 13)"/>
</clipPath>
</defs>
</svg>
