<svg width="155" height="39" viewBox="0 0 155 39" fill="none" xmlns="http://www.w3.org/2000/svg">
<g clip-path="url(#clip0_2806_336)">
<path d="M40.4754 13.9668H56.0536V16.8839H49.9157V33.3134H46.5577V16.8839H40.4531L40.4754 13.9668ZM55.3864 19.3092H58.2663V22.0139H58.3219C58.422 21.6227 58.5999 21.2651 58.8557 20.9074C59.1114 20.5498 59.4228 20.2145 59.8008 19.9239C60.1566 19.6109 60.5681 19.3874 61.0351 19.1974C61.4687 19.0186 61.9357 18.918 62.3916 18.918C62.7475 18.918 63.0032 18.9404 63.1366 18.9404C63.2701 18.9627 63.4146 18.9962 63.548 18.9962V21.958C63.3479 21.9021 63.1144 21.8798 62.8809 21.8574C62.6474 21.8351 62.4472 21.8015 62.2137 21.8015C61.7022 21.8015 61.213 21.9021 60.746 22.1145C60.279 22.3157 59.9009 22.6286 59.5451 23.0198C59.2115 23.4333 58.9335 23.9251 58.7222 24.5174C58.5221 25.1098 58.4109 25.8027 58.4109 26.5851V33.2463H55.3308L55.3864 19.3092ZM77.6696 33.3134H74.6452V31.3575H74.5896C74.2004 32.084 73.6444 32.6204 72.8994 33.0563C72.1544 33.4922 71.3872 33.7046 70.62 33.7046C68.7964 33.7046 67.4621 33.2687 66.6392 32.341C65.8164 31.4357 65.405 30.0498 65.405 28.2169V19.3204H68.485V27.9151C68.485 29.1557 68.7186 30.0275 69.2078 30.5192C69.6748 31.0334 70.342 31.2904 71.187 31.2904C71.832 31.2904 72.3657 31.1898 72.7994 30.9775C73.233 30.7763 73.5999 30.5081 73.8557 30.1728C74.1337 29.8375 74.3227 29.4239 74.445 28.9657C74.5785 28.4963 74.6229 27.9822 74.6229 27.4457V19.3204H77.703V33.3246L77.6696 33.3134ZM82.9069 28.8204C83.0069 29.7257 83.3405 30.3404 83.9298 30.7316C84.5192 31.0892 85.2419 31.2681 86.0648 31.2681C86.3427 31.2681 86.6763 31.2457 87.0433 31.1898C87.3991 31.134 87.766 31.0557 88.0662 30.9328C88.3998 30.7987 88.6556 30.6198 88.8668 30.3628C89.0781 30.1057 89.1782 29.7928 89.1448 29.4128C89.1226 29.0216 88.9891 28.6863 88.7112 28.4292C88.4332 28.1722 88.0996 27.9933 87.6882 27.8145C87.2768 27.6581 86.7875 27.5351 86.2538 27.4233C85.7201 27.3116 85.1752 27.1886 84.6081 27.0657C84.041 26.9316 83.4739 26.7863 82.9402 26.5963C82.4065 26.4175 81.9395 26.1827 81.5058 25.8475C81.0944 25.5345 80.7386 25.1545 80.5051 24.6627C80.2493 24.171 80.1159 23.601 80.1159 22.8857C80.1159 22.1145 80.2938 21.4886 80.683 20.9745C81.0388 20.4604 81.5281 20.0468 82.0951 19.7339C82.6622 19.4209 83.296 19.1974 83.9966 19.0633C84.686 18.9292 85.3531 18.8845 85.9758 18.8845C86.6986 18.8845 87.388 18.9627 88.0329 19.1192C88.6778 19.2756 89.2894 19.5104 89.8009 19.868C90.3346 20.2033 90.7794 20.6727 91.113 21.2092C91.4688 21.7457 91.68 22.4163 91.7801 23.1986H88.5666C88.4109 22.4498 88.0774 21.958 87.5659 21.701C87.0321 21.4439 86.4317 21.3098 85.7423 21.3098C85.5421 21.3098 85.253 21.3321 84.9751 21.3657C84.6637 21.4215 84.408 21.4663 84.13 21.5668C83.8742 21.6674 83.6407 21.8239 83.4628 22.0027C83.2849 22.1815 83.1848 22.4386 83.1848 22.7516C83.1848 23.1427 83.3183 23.4221 83.574 23.6569C83.8298 23.8916 84.1633 24.0704 84.597 24.2492C85.0084 24.4057 85.4977 24.5286 86.0314 24.6404C86.5651 24.741 87.1322 24.8751 87.6993 24.998C88.2664 25.1322 88.8001 25.2774 89.345 25.4675C89.8898 25.6575 90.368 25.881 90.7794 26.2163C91.1908 26.5292 91.5466 26.9092 91.8023 27.3786C92.0581 27.8481 92.1915 28.4404 92.1915 29.111C92.1915 29.9381 92.0136 30.631 91.6244 31.2234C91.2353 31.7934 90.7571 32.2851 90.1567 32.6428C89.5674 33.0004 88.878 33.2575 88.1552 33.4475C87.4102 33.604 86.6874 33.7046 85.9758 33.7046C85.1085 33.7046 84.2857 33.604 83.5407 33.3916C82.7957 33.1793 82.1285 32.8775 81.5948 32.4863C81.061 32.0728 80.6163 31.581 80.316 30.9663C80.0047 30.3739 79.8268 29.6475 79.8046 28.7981H82.9069V28.8204ZM93.0366 19.3092H95.3717V15.0733H98.4517V19.2756H101.22V21.5668H98.4517V29.0439C98.4517 29.3792 98.474 29.6363 98.5073 29.8934C98.5296 30.1281 98.6074 30.3292 98.6852 30.4857C98.7853 30.6422 98.941 30.7651 99.1189 30.8434C99.319 30.9216 99.5859 30.9775 99.9417 30.9775C100.142 30.9775 100.375 30.9775 100.587 30.9551C100.798 30.9328 101.02 30.8992 101.232 30.8545V33.2575C100.898 33.3134 100.564 33.3357 100.231 33.3581C99.8972 33.414 99.5859 33.414 99.2301 33.414C98.4072 33.414 97.7623 33.3357 97.2842 33.1793C96.7949 33.0228 96.4169 32.7881 96.1278 32.5087C95.8498 32.1957 95.6608 31.8381 95.5607 31.4022C95.4606 30.9663 95.405 30.4187 95.3828 29.8598V21.6004H93.0477V19.2533L93.0366 19.3092ZM103.378 19.3092H106.28V21.2204H106.335C106.769 20.3933 107.358 19.8233 108.137 19.4657C108.915 19.108 109.727 18.9292 110.65 18.9292C111.75 18.9292 112.707 19.108 113.53 19.5215C114.352 19.9127 115.02 20.4268 115.553 21.1198C116.087 21.7904 116.498 22.5951 116.754 23.4892C117.01 24.3945 117.166 25.3669 117.166 26.3839C117.166 27.3339 117.032 28.2392 116.81 29.1222C116.554 29.9939 116.198 30.7987 115.709 31.4692C115.22 32.1398 114.608 32.6763 113.841 33.0898C113.074 33.5034 112.195 33.7046 111.172 33.7046C110.739 33.7046 110.272 33.6487 109.838 33.5704C109.404 33.4922 108.971 33.3693 108.559 33.1793C108.148 33.0004 107.759 32.7657 107.425 32.4863C107.069 32.2069 106.78 31.8716 106.558 31.5028H106.502V38.4993H103.411V19.3092H103.378ZM114.141 26.328C114.141 25.7133 114.063 25.0874 113.885 24.4951C113.73 23.9027 113.474 23.3886 113.14 22.9192C112.807 22.4498 112.395 22.0921 111.94 21.8127C111.45 21.5333 110.883 21.3992 110.272 21.3992C108.993 21.3992 108.014 21.8351 107.347 22.7404C106.702 23.6457 106.369 24.8527 106.369 26.3504C106.369 27.0769 106.447 27.7139 106.624 28.3063C106.802 28.8986 107.036 29.4128 107.392 29.8487C107.725 30.2845 108.137 30.6198 108.626 30.8769C109.115 31.134 109.649 31.2681 110.294 31.2681C111.017 31.2681 111.573 31.1116 112.062 30.8322C112.551 30.5528 112.929 30.1616 113.263 29.7257C113.574 29.2563 113.796 28.7422 113.93 28.1498C114.063 27.5351 114.141 26.9428 114.141 26.328ZM119.556 13.9668H122.636V16.8839H119.556V13.9668ZM119.556 19.3092H122.636V33.3134H119.556V19.3092ZM125.383 13.9668H128.463V33.3134H125.383V13.9668ZM137.848 33.7046C136.747 33.7046 135.746 33.5257 134.868 33.1346C134 32.7434 133.278 32.2628 132.655 31.6145C132.066 30.9663 131.599 30.1728 131.298 29.2675C130.987 28.3622 130.809 27.3563 130.809 26.3057C130.809 25.2551 130.965 24.2716 131.298 23.3663C131.61 22.461 132.066 21.6898 132.655 21.0192C133.244 20.371 133.989 19.8568 134.868 19.4992C135.746 19.1415 136.736 18.9292 137.848 18.9292C138.948 18.9292 139.949 19.108 140.828 19.4992C141.695 19.8568 142.418 20.371 143.04 21.0192C143.63 21.6674 144.097 22.461 144.397 23.3663C144.708 24.2716 144.886 25.2439 144.886 26.3057C144.886 27.3898 144.731 28.3733 144.397 29.2675C144.063 30.1616 143.63 30.944 143.04 31.6145C142.451 32.2628 141.706 32.7769 140.828 33.1346C139.96 33.4922 138.982 33.7046 137.848 33.7046ZM137.848 31.2457C138.515 31.2457 139.126 31.0892 139.616 30.8098C140.127 30.5304 140.516 30.1392 140.85 29.6698C141.183 29.2004 141.417 28.6639 141.573 28.0939C141.728 27.5016 141.806 26.9092 141.806 26.2833C141.806 25.691 141.728 25.0986 141.573 24.5063C141.417 23.9139 141.183 23.3998 140.85 22.9304C140.516 22.461 140.105 22.1033 139.616 21.8239C139.104 21.5445 138.515 21.388 137.848 21.388C137.18 21.388 136.569 21.5445 136.08 21.8239C135.568 22.1033 135.179 22.4945 134.845 22.9304C134.512 23.3998 134.278 23.9139 134.123 24.5063C133.967 25.0986 133.889 25.691 133.889 26.2833C133.889 26.898 133.967 27.4904 134.123 28.0939C134.278 28.6863 134.512 29.2004 134.845 29.6698C135.179 30.1392 135.59 30.5192 136.08 30.8098C136.591 31.1228 137.18 31.2457 137.848 31.2457ZM145.809 19.3092H148.144V15.0733H151.224V19.2756H153.993V21.5668H151.224V29.0439C151.224 29.3792 151.246 29.6363 151.28 29.8934C151.302 30.1281 151.38 30.3292 151.458 30.4857C151.558 30.6422 151.713 30.7651 151.891 30.8434C152.092 30.9216 152.358 30.9775 152.714 30.9775C152.914 30.9775 153.148 30.9775 153.359 30.9551C153.559 30.9328 153.793 30.8992 154.004 30.8545V33.2575C153.67 33.3134 153.337 33.3357 153.003 33.3581C152.67 33.414 152.358 33.414 152.003 33.414C151.18 33.414 150.535 33.3357 150.057 33.1793C149.579 33.0228 149.189 32.7881 148.9 32.5087C148.622 32.1957 148.433 31.8381 148.333 31.4022C148.233 30.9663 148.178 30.4187 148.155 29.8598V21.6004H145.82V19.2533V19.3092H145.809Z" fill="white"/>
<path d="M36.8829 13.9677H22.7947L18.4581 0.5L14.0994 13.9677L0 13.9454L11.3973 22.2831L7.02744 35.7396L18.4248 27.4019L29.8221 35.7396L25.4856 22.2719L36.8829 13.9677Z" fill="#00B67A"/>
<path d="M26.4669 25.3232L25.4884 22.2832L18.4609 27.4132L26.4669 25.3232Z" fill="#005128"/>
</g>
<defs>
<clipPath id="clip0_2806_336">
<rect width="155" height="38" fill="white" transform="translate(0 0.5)"/>
</clipPath>
</defs>
</svg>
