<svg width="139" height="41" viewBox="0 0 139 41" fill="none" xmlns="http://www.w3.org/2000/svg">
<g clip-path="url(#clip0_2806_359)">
<path fill-rule="evenodd" clip-rule="evenodd" d="M47.6158 18.9504V2.00039H53.7745C55.08 2.00039 55.9171 2.28039 56.6646 2.56039C58.3487 3.40039 59.0962 5.00039 59.0962 6.40039C59.0962 7.99039 58.4384 9.12039 57.1329 9.96039C59.0962 10.4304 60.2123 11.7404 60.2123 13.8004C60.2123 16.1404 58.8072 17.8304 56.4752 18.5804C55.6381 18.8604 54.7013 18.9504 53.3062 18.9504H47.6158ZM55.1697 4.90039C54.7013 4.71039 54.233 4.62039 53.5852 4.62039H50.4161V9.02039H53.4058C54.2429 9.02039 54.811 8.93039 55.2694 8.65039C55.9072 8.29039 56.3058 7.61039 56.2958 6.87039C56.2958 6.03039 55.8274 5.28039 55.1697 4.90039ZM56.0168 11.9304C55.6481 11.7404 55.08 11.6504 54.1532 11.6504H50.4161V16.3304H53.8742C54.9903 16.3304 55.5584 16.1404 56.0168 15.9604C56.8539 15.5904 57.2326 14.8404 57.2326 13.9004C57.2326 12.9604 56.8539 12.3004 56.0168 11.9304ZM77.0143 18.9504V2.00039H79.9043V18.9604H77.0143V18.9504ZM98.0217 18.9504V2.00039H100.912V18.9604H98.0217V18.9504ZM110.16 1.90039C112.023 1.90039 113.897 2.37039 114.923 2.84039L114.834 5.65039C113.339 4.90039 111.944 4.43039 110.17 4.43039C108.585 4.43039 107.18 4.90039 107.18 6.21039C107.18 9.68039 115.86 8.27039 115.86 13.9804C115.86 17.1604 113.249 19.1304 109.323 19.1304C106.712 19.1304 104.938 18.3804 103.622 17.6304L104.838 15.2904C105.865 15.9504 107.549 16.6004 109.412 16.6004C111.186 16.6004 112.771 15.9404 112.771 14.4504C112.771 10.8004 104.18 12.3904 104.18 6.67039C104.18 3.59039 106.612 1.90039 110.16 1.90039ZM129.483 18.9504V11.6404H121.361V18.9504H118.471V2.00039H121.361V8.93039H129.483V2.00039H132.373V18.9604H129.483V18.9504ZM53.9639 21.8604C55.7378 21.8604 57.1329 22.2304 58.6278 22.8904L57.7907 25.3304C56.9536 24.9504 55.8274 24.4904 54.2429 24.4904C51.0739 24.4904 49.1106 27.2104 49.1106 30.4904C49.1106 33.8604 50.9742 36.5804 54.2429 36.5804C55.8274 36.5804 56.9536 36.1104 57.7907 35.7404L58.6278 38.1704C57.1329 38.8304 55.7378 39.2004 53.9639 39.2004C48.9213 39.2004 46.0313 35.6404 46.0313 30.5804C46.0213 25.7904 48.9213 21.8604 53.9639 21.8604ZM117.066 21.8604C118.93 21.8604 120.335 22.2304 121.73 22.8904L120.893 25.3304C120.056 24.9504 118.93 24.4904 117.345 24.4904C114.166 24.4904 112.213 27.2104 112.213 30.4904C112.213 33.8604 114.076 36.5804 117.345 36.5804C118.93 36.5804 120.056 36.1104 120.893 35.7404L121.73 38.1704C120.335 38.8304 118.93 39.2004 117.066 39.2004C112.023 39.2004 109.133 35.6404 109.133 30.5804C109.133 25.7904 112.023 21.8604 117.066 21.8604ZM75.061 30.4804C75.061 35.5404 71.892 39.1904 67.1284 39.1904C62.3649 39.1904 59.1958 35.6304 59.1958 30.5704C59.1958 25.5104 62.3748 21.8604 67.1284 21.8604C71.9817 21.8604 75.061 25.4204 75.061 30.4804ZM72.0714 30.4804C72.0714 26.8304 69.9288 24.4804 67.1284 24.4804C64.3281 24.4804 62.1855 26.8204 62.1855 30.5704C62.1855 34.2204 64.3281 36.5704 67.1284 36.5704C69.9188 36.5604 72.0714 34.2204 72.0714 30.4804ZM77.0143 32.5404V22.0504H79.9043V32.6404C79.9043 35.5404 81.3991 36.5704 83.8208 36.5704C86.2424 36.5704 87.7373 35.5404 87.7373 32.6404V22.0504H90.6273V32.5404C90.6273 37.1304 88.0163 39.1904 83.8108 39.1904C79.6352 39.1904 77.0143 37.1304 77.0143 32.5404ZM96.0585 26.6404H95.9688C96.0585 27.2004 96.0585 28.1404 96.0585 28.8904V38.9104H93.1685V22.0504H96.3475L104.091 33.5704H104.18C104.091 33.0104 104.091 32.0704 104.091 31.3204V22.0504H106.981V38.9104H104.46L96.0585 26.6404ZM123.972 38.9104V22.0504H126.862V38.9104H123.972ZM129.483 38.9104V22.0504H132.373V36.2904H139V38.9104H129.483ZM95.7795 2.09039H82.1565V4.71039H87.5678V18.9504H90.4579V4.72039H95.7795V2.09039ZM71.882 18.9504C69.4504 13.8004 68.8026 12.3904 67.7762 12.3904H65.0655V18.9504H62.1755V2.09039H67.8659C72.2507 2.09039 73.8452 4.34039 73.8452 6.87039C73.8452 9.21039 72.6294 10.7104 70.7659 11.2704C71.5133 11.7404 72.3504 13.3304 75.1507 18.9504H71.882ZM68.0552 4.62039H65.0655V9.77039H67.9556C70.0085 9.77039 70.9452 8.74039 70.9452 7.15039C70.9452 5.75039 70.1081 4.62039 68.0552 4.62039Z" fill="white"/>
<path fill-rule="evenodd" clip-rule="evenodd" d="M19.3233 10.15C19.3233 15.49 14.9384 19.8 9.61679 19.8C4.38486 19.8 0 15.49 0 10.15C0 4.81002 4.38486 0.500017 9.61679 0.500017C14.9384 0.500017 19.3233 4.81002 19.3233 10.15ZM39.8623 10.15C39.8723 15.47 35.5771 19.79 30.2755 19.8C30.2655 19.8 30.2555 19.8 30.2456 19.8C24.9239 19.8 20.6288 15.49 20.6288 10.15C20.6288 4.81002 24.9239 0.500017 30.2456 0.500017C35.5472 0.490017 39.8524 4.80002 39.8623 10.12C39.8623 10.13 39.8623 10.14 39.8623 10.15ZM19.3233 30.85C19.3233 36.19 14.9384 40.5 9.61679 40.5C4.38486 40.5 0 36.19 0 30.85C0 25.51 4.38486 21.2 9.61679 21.2C14.9384 21.2 19.3233 25.51 19.3233 30.85ZM39.8623 30.85C39.8723 36.17 35.5771 40.49 30.2755 40.5C30.2655 40.5 30.2555 40.5 30.2456 40.5C24.9439 40.51 20.6387 36.2 20.6288 30.88C20.6288 30.87 20.6288 30.86 20.6288 30.85C20.6188 25.53 24.914 21.21 30.2157 21.2C30.2256 21.2 30.2356 21.2 30.2456 21.2C35.5472 21.19 39.8524 25.5 39.8623 30.82C39.8623 30.83 39.8623 30.84 39.8623 30.85Z" fill="#00A0E2"/>
</g>
<defs>
<clipPath id="clip0_2806_359">
<rect width="139" height="40" fill="white" transform="translate(0 0.5)"/>
</clipPath>
</defs>
</svg>
