<svg width="500" height="500" viewBox="0 0 500 500" fill="none" xmlns="http://www.w3.org/2000/svg">
<path d="M500 382.398H0V382.648H500V382.398Z" fill="#EBEBEB"/>
<path d="M449.902 398.494H428.223V398.744H449.902V398.494Z" fill="#EBEBEB"/>
<path d="M344.668 393.306H310.559V393.556H344.668V393.306Z" fill="#EBEBEB"/>
<path d="M441.111 389.208H396.586V389.458H441.111V389.208Z" fill="#EBEBEB"/>
<path d="M173.015 394.25H161.877V394.5H173.015V394.25Z" fill="#EBEBEB"/>
<path d="M152.975 394.25H114.586V394.5H152.975V394.25Z" fill="#EBEBEB"/>
<path d="M94.0016 390.028H66.3066V390.278H94.0016V390.028Z" fill="#EBEBEB"/>
<path d="M216.071 200.878L216.521 187.737L208.453 185.101C208.121 180.611 207.37 176.177 206.302 171.905L213.14 166.863L208.495 154.52L200.037 155.201C198.021 151.21 195.652 147.413 192.997 143.851L197.378 136.538L188.37 126.927L180.808 130.799C177.402 127.904 173.812 125.283 169.969 122.965L171.194 114.571L159.196 109.126L153.699 115.568C149.511 114.209 145.172 113.193 140.683 112.519L138.639 104.291L125.463 103.84L122.861 111.909C118.336 112.274 113.937 112.991 109.666 114.06L104.588 107.255L92.2464 111.866L92.9284 120.325C88.9364 122.375 85.1404 124.743 81.5784 127.399L74.3004 123.019L64.6544 131.991L68.5254 139.587C65.6324 142.959 63.0094 146.585 60.7244 150.429L52.3324 149.17L46.8534 161.166L53.3294 166.664C51.9714 170.853 50.9184 175.226 50.2804 179.682L42.0164 181.758L41.5664 194.899L49.6684 197.538C49.9994 202.061 50.7514 206.462 51.8204 210.732L44.9834 215.774L49.6284 228.118L58.0864 227.435C60.1024 231.426 62.4714 235.223 65.1264 238.785L60.7444 246.098L69.7534 255.71L77.3144 251.837C80.6864 254.731 84.3114 257.355 88.1544 259.673L86.8944 268.064L98.8924 273.509L104.424 267.068C108.612 268.427 112.951 269.443 117.441 270.117L119.485 278.345L132.661 278.796L135.264 270.727C139.788 270.362 144.187 269.645 148.458 268.576L153.501 275.379L165.843 270.768L165.195 262.312C169.188 260.262 172.949 257.891 176.545 255.236L183.824 259.618L193.469 250.645L189.599 243.049C192.492 239.677 195.115 236.051 197.4 232.207L205.792 233.467L211.271 221.47L204.794 215.972C206.153 211.784 207.204 207.446 207.843 202.956L216.071 200.878ZM127.275 243.449C98.4974 242.463 75.9624 218.329 76.9484 189.55C77.9354 160.737 102.069 138.204 130.847 139.19C159.625 140.176 182.16 164.308 181.173 193.121C180.187 221.9 156.053 244.435 127.275 243.449Z" fill="#EBEBEB"/>
<path d="M440.957 157.423L444.271 154.328L442.947 151.718C443.961 150.542 444.859 149.278 445.64 147.976L448.537 148.414L450.414 144.272L448.185 142.376C448.667 140.911 449.015 139.408 449.236 137.892L452.088 137.177L452.235 132.637L449.447 131.737C449.322 130.201 449.086 128.686 448.714 127.184L451.06 125.436L449.462 121.183L446.551 121.413C445.861 120.06 445.051 118.754 444.121 117.496L445.629 114.991L442.526 111.668L439.923 113C438.73 111.985 437.483 111.088 436.181 110.307L436.602 107.409L432.468 105.524L430.572 107.753C429.099 107.279 427.596 106.931 426.079 106.71L425.372 103.867L420.832 103.703L419.924 106.499C418.396 106.616 416.873 106.86 415.378 107.241L413.639 104.888L409.378 106.477L409.616 109.397C408.263 110.087 406.94 110.897 405.698 111.828L403.177 110.319L399.863 113.414L401.195 116.033C400.173 117.217 399.283 118.473 398.502 119.775L395.605 119.337L393.727 123.48L395.956 125.376C395.474 126.841 395.126 128.344 394.905 129.86L392.053 130.575L391.906 135.116L394.694 136.015C394.811 137.543 395.055 139.067 395.426 140.569L393.073 142.308L394.671 146.561L397.591 146.339C398.281 147.692 399.091 148.997 400.022 150.257L398.514 152.762L401.617 156.085L404.219 154.752C405.411 155.766 406.659 156.664 407.961 157.445L407.532 160.334L411.666 162.219L413.57 159.999C415.044 160.473 416.539 160.812 418.063 161.041L418.77 163.884L423.31 164.048L424.218 161.252C425.746 161.135 427.269 160.891 428.764 160.51L430.503 162.864L434.765 161.275L434.526 158.355C435.878 157.665 437.193 156.864 438.444 155.925L440.957 157.423ZM417.341 138.292C414.903 135.681 415.043 131.586 417.654 129.148C420.268 126.707 424.363 126.847 426.801 129.459C429.239 132.07 429.099 136.165 426.485 138.606C423.874 141.044 419.779 140.903 417.341 138.292Z" fill="#EBEBEB"/>
<path d="M319.989 292.336L309.648 285.194C309.645 285.186 309.645 285.177 309.642 285.169C308.619 281.412 307.208 277.796 305.483 274.397L308.132 263.999L293.132 247.934L282.573 249.867C279.303 247.916 275.794 246.262 272.119 244.985C272.111 244.983 272.101 244.981 272.093 244.977L265.673 234.167L243.708 233.414L236.566 243.755C236.553 243.758 236.539 243.762 236.525 243.765C232.772 244.788 229.159 246.196 225.765 247.919L215.372 245.27L199.308 260.271L201.237 270.809C201.235 270.813 201.233 270.814 201.231 270.818C199.239 274.125 197.623 277.635 196.346 281.312L185.538 287.729L184.785 309.695L195.135 316.843C196.157 320.626 197.524 324.234 199.282 327.661C199.283 327.663 199.283 327.663 199.284 327.665L196.642 338.031L211.642 354.094L222.135 352.174C225.447 354.132 228.961 355.788 232.681 357.067C232.684 357.069 232.686 357.069 232.69 357.069L239.099 367.863L261.064 368.616L268.201 358.282C271.998 357.261 275.616 355.851 279.052 354.124C279.052 354.124 279.054 354.124 279.055 354.122L289.401 356.758L305.465 341.759L303.536 331.219C305.528 327.912 307.144 324.4 308.421 320.723L308.422 320.721L319.234 314.3L319.989 292.336ZM251.537 325.726C237.883 325.258 227.217 313.795 227.683 300.18C228.151 286.526 239.575 275.859 253.229 276.326C266.883 276.794 277.55 288.218 277.083 301.872C276.617 315.487 265.191 326.194 251.537 325.726Z" fill="#EBEBEB"/>
<path d="M343.548 229.954C343.524 229.954 343.5 229.954 343.476 229.953L326.159 229.36C325.44 229.336 324.783 228.946 324.416 228.328L319.753 220.476C317.274 219.577 314.831 218.443 312.47 217.098L304.963 218.471C304.255 218.605 303.531 218.362 303.04 217.835L291.214 205.172C290.723 204.646 290.534 203.906 290.711 203.209L292.599 195.799C291.452 193.452 290.492 190.945 289.74 188.329L282.209 183.128C281.617 182.72 281.274 182.037 281.298 181.319L281.891 164.002C281.915 163.283 282.305 162.626 282.923 162.259L290.789 157.588C291.722 155.034 292.853 152.603 294.159 150.34L292.78 142.807C292.651 142.1 292.89 141.374 293.416 140.884L306.081 129.057C306.607 128.565 307.347 128.377 308.044 128.554L315.479 130.449C317.884 129.279 320.383 128.315 322.928 127.578L328.125 120.053C328.533 119.461 329.204 119.095 329.935 119.143L347.252 119.737C347.971 119.761 348.628 120.15 348.995 120.769L353.667 128.635C356.149 129.544 358.573 130.675 360.894 132.007L368.448 130.623C369.157 130.494 369.881 130.733 370.372 131.259L382.198 143.925C382.689 144.451 382.878 145.191 382.701 145.888L380.805 153.326C381.976 155.732 382.939 158.23 383.677 160.772L391.202 165.968C391.794 166.376 392.137 167.059 392.113 167.778L391.52 185.096C391.496 185.815 391.106 186.472 390.488 186.839L382.619 191.512C381.686 194.065 380.557 196.495 379.253 198.755L380.632 206.291C380.761 206.998 380.522 207.724 379.996 208.214L367.331 220.038C366.806 220.53 366.067 220.72 365.369 220.541L357.968 218.655C355.529 219.833 353.016 220.796 350.48 221.525L345.288 229.044C344.891 229.614 344.241 229.954 343.548 229.954ZM327.457 225.179L342.466 225.694L347.437 218.496C347.721 218.085 348.143 217.787 348.626 217.657C351.391 216.914 354.134 215.862 356.781 214.531C356.786 214.529 356.79 214.527 356.795 214.524C357.236 214.307 357.75 214.24 358.253 214.371L365.291 216.164L376.268 205.915L374.955 198.741C374.862 198.235 374.958 197.713 375.223 197.271C376.671 194.868 377.899 192.232 378.873 189.437C379.033 188.941 379.372 188.524 379.814 188.264L387.337 183.796L387.851 168.786L380.648 163.811C380.271 163.551 379.989 163.175 379.844 162.742C379.826 162.688 379.81 162.631 379.796 162.573C379.043 159.815 377.995 157.105 376.682 154.518C376.45 154.061 376.393 153.536 376.518 153.04L378.322 145.962L368.072 134.983L360.883 136.299C360.379 136.392 359.86 136.297 359.421 136.035C356.921 134.543 354.281 133.31 351.575 132.369C351.422 132.316 351.267 132.245 351.134 132.164C350.842 131.984 350.599 131.737 350.425 131.443L345.953 123.914L330.944 123.399L325.969 130.603C325.673 131.032 325.23 131.334 324.726 131.455C321.949 132.216 319.248 133.26 316.672 134.567C316.215 134.799 315.689 134.857 315.195 134.73L308.12 132.926L297.143 143.177L298.456 150.35C298.539 150.8 298.472 151.265 298.268 151.674C298.239 151.732 298.207 151.788 298.173 151.844C296.722 154.256 295.492 156.9 294.519 159.703C294.355 160.173 294.031 160.571 293.603 160.825L286.075 165.296L285.561 180.305L292.771 185.285C293.182 185.568 293.479 185.989 293.61 186.471C294.387 189.347 295.433 192.078 296.72 194.588C296.794 194.732 296.852 194.884 296.891 195.042C296.976 195.381 296.975 195.736 296.889 196.075L295.091 203.129L305.341 214.105L312.479 212.799C312.98 212.708 313.496 212.801 313.933 213.059C316.478 214.564 319.131 215.796 321.821 216.724C322.307 216.878 322.728 217.207 322.995 217.658L327.457 225.179ZM336.728 206.214C336.358 206.214 335.989 206.207 335.617 206.194C318.171 205.596 304.464 190.917 305.062 173.471C305.66 156.026 320.363 142.323 337.785 142.915C355.231 143.513 368.938 158.192 368.34 175.639C368.051 184.079 364.49 191.908 358.314 197.681C352.403 203.207 344.774 206.214 336.728 206.214ZM336.69 147.12C321.992 147.12 309.79 158.815 309.283 173.616C308.765 188.734 320.643 201.455 335.762 201.973C343.088 202.218 350.073 199.605 355.431 194.596C360.784 189.592 363.87 182.808 364.12 175.494C364.638 160.376 352.759 147.654 337.641 147.136C337.323 147.126 337.005 147.12 336.69 147.12Z" fill="#EBEBEB"/>
<path d="M383.438 105.323L376.264 103.397L374.338 96.224L377.147 93.415L380.11 99.551L386.246 102.515L383.438 105.323Z" fill="#E0E0E0"/>
<path d="M383.882 100.521C385.189 99.214 385.189 97.084 383.882 95.777C382.575 94.47 380.455 94.48 379.148 95.787L382.716 90.434L387.502 92.853L388.551 97.882L383.882 100.521Z" fill="#E0E0E0"/>
<path d="M376.58 93.981L381.837 88.724L389.01 90.65L390.937 97.824L385.68 103.081L378.506 101.154L376.58 93.981ZM386.125 98.279C387.432 96.972 387.432 94.842 386.125 93.535C384.818 92.228 382.698 92.238 381.391 93.545C380.084 94.852 380.084 96.963 381.391 98.269C382.698 99.576 384.818 99.586 386.125 98.279Z" fill="#F0F0F0"/>
<path d="M90.2218 296.708L94.0708 295.674L95.1048 291.825L93.5978 290.318L92.0079 293.611L88.7148 295.201L90.2218 296.708Z" fill="#E0E0E0"/>
<path d="M89.9826 294.131C89.2816 293.43 89.2816 292.287 89.9826 291.585C90.6836 290.884 91.8216 290.889 92.5226 291.59L90.6076 288.717L88.0396 290.015L87.4766 292.713L89.9826 294.131Z" fill="#E0E0E0"/>
<path d="M93.9013 290.622L91.0803 287.801L87.2313 288.835L86.1973 292.685L89.0183 295.506L92.8673 294.472L93.9013 290.622ZM88.7783 292.928C88.0773 292.227 88.0773 291.084 88.7783 290.382C89.4793 289.681 90.6173 289.686 91.3183 290.387C92.0193 291.088 92.0193 292.221 91.3183 292.922C90.6183 293.624 89.4803 293.629 88.7783 292.928Z" fill="#F0F0F0"/>
<path d="M76.3623 85.662L79.5573 88.857C80.3893 89.689 81.7503 89.689 82.5823 88.857C83.4143 88.025 83.4143 86.664 82.5823 85.832L79.3873 82.637C78.5553 81.805 77.1943 81.805 76.3623 82.637C75.5303 83.469 75.5303 84.831 76.3623 85.662Z" fill="#F0F0F0"/>
<path d="M74.111 77.705C76.573 76.821 79.242 77.977 80.072 80.288C80.902 82.599 79.579 85.189 77.117 86.074C74.655 86.958 71.986 85.802 71.156 83.491C70.326 81.18 71.649 78.59 74.111 77.705Z" fill="#E0E0E0"/>
<path d="M70.6287 82.9577L71.0918 84.247L80.5988 80.8325L80.1357 79.5432L70.6287 82.9577Z" fill="#F0F0F0"/>
<path d="M250 427.561C357.082 427.561 443.889 422.492 443.889 416.238C443.889 409.985 357.082 404.915 250 404.915C142.918 404.915 56.1113 409.985 56.1113 416.238C56.1113 422.492 142.918 427.561 250 427.561Z" fill="#F5F5F5"/>
<path d="M86.7162 120.646C85.7152 116.243 86.1622 112.536 88.0582 109.523C89.9542 106.512 93.0922 104.509 97.4712 103.513C101.961 102.492 105.694 102.911 108.671 104.77C111.648 106.628 113.63 109.728 114.617 114.071C115.334 117.224 115.391 119.93 114.789 122.189C114.186 124.449 113.01 126.368 111.26 127.946C109.509 129.525 107.137 130.653 104.144 131.334C101.102 132.026 98.4742 132.114 96.2602 131.599C94.0462 131.083 92.0812 129.917 90.3652 128.1C88.6492 126.284 87.4322 123.8 86.7162 120.646ZM95.0602 118.789C95.6792 121.513 96.6302 123.354 97.9132 124.313C99.1952 125.274 100.707 125.554 102.45 125.158C104.241 124.752 105.495 123.854 106.211 122.466C106.927 121.078 106.943 118.874 106.256 115.857C105.679 113.318 104.745 111.579 103.454 110.639C102.163 109.701 100.641 109.431 98.8872 109.83C97.2062 110.212 95.9922 111.114 95.2442 112.535C94.4962 113.957 94.4352 116.041 95.0602 118.789Z" fill="#263238"/>
<path d="M118.593 117.347C117.915 114.367 118.363 111.681 119.936 109.291C121.508 106.901 124.006 105.317 127.429 104.54C131.342 103.65 134.556 104.112 137.072 105.928C139.094 107.391 140.41 109.459 141.018 112.133C141.701 115.14 141.265 117.828 139.707 120.201C138.15 122.574 135.611 124.161 132.09 124.961C128.95 125.675 126.229 125.456 123.928 124.301C121.099 122.868 119.321 120.55 118.593 117.347ZM126.097 115.623C126.493 117.364 127.138 118.572 128.034 119.247C128.929 119.921 129.91 120.136 130.977 119.893C132.056 119.647 132.849 119.035 133.355 118.055C133.861 117.076 133.908 115.678 133.496 113.864C133.111 112.171 132.475 110.989 131.587 110.32C130.699 109.651 129.74 109.433 128.71 109.668C127.618 109.916 126.812 110.542 126.292 111.544C125.771 112.545 125.706 113.905 126.097 115.623Z" fill="#263238"/>
<path d="M148.586 128.566L142.453 101.589L149.464 99.994L150.121 102.883C150.814 101.449 151.516 100.426 152.228 99.812C153.189 98.988 154.332 98.424 155.657 98.124C158.27 97.529 160.518 98.07 162.402 99.744C164.286 101.419 165.563 103.728 166.232 106.673C166.971 109.924 166.756 112.582 165.587 114.648C164.418 116.713 162.644 118.017 160.264 118.558C159.111 118.82 158.015 118.863 156.974 118.686C155.934 118.509 154.952 118.121 154.028 117.518L156.149 126.847L148.586 128.566ZM152.195 109.709C152.546 111.255 153.132 112.328 153.952 112.929C154.772 113.53 155.679 113.716 156.673 113.491C157.544 113.293 158.193 112.768 158.618 111.917C159.043 111.065 159.061 109.781 158.671 108.063C158.311 106.48 157.74 105.388 156.958 104.786C156.176 104.182 155.343 103.982 154.46 104.182C153.504 104.4 152.791 104.956 152.323 105.848C151.855 106.742 151.812 108.028 152.195 109.709Z" fill="#263238"/>
<path d="M169.435 110.299L176.71 107.909C177.217 108.722 177.791 109.257 178.429 109.513C179.067 109.767 179.847 109.79 180.767 109.581C181.772 109.352 182.503 108.961 182.958 108.406C183.315 107.99 183.439 107.544 183.33 107.065C183.208 106.526 182.831 106.173 182.2 106.008C181.748 105.892 180.616 105.879 178.805 105.968C176.101 106.107 174.2 106.097 173.099 105.942C171.999 105.785 170.998 105.327 170.096 104.565C169.194 103.804 168.609 102.834 168.342 101.658C168.05 100.371 168.172 99.178 168.708 98.076C169.245 96.974 170.117 96.044 171.325 95.286C172.533 94.528 174.241 93.898 176.449 93.396C178.78 92.866 180.541 92.654 181.732 92.756C182.923 92.86 183.975 93.201 184.887 93.78C185.8 94.36 186.646 95.231 187.426 96.396L180.482 98.71C180.156 98.125 179.745 97.735 179.249 97.539C178.57 97.279 177.814 97.244 176.98 97.435C176.133 97.627 175.551 97.917 175.233 98.305C174.915 98.693 174.804 99.102 174.902 99.531C175.01 100.009 175.338 100.314 175.884 100.447C176.43 100.582 177.548 100.558 179.236 100.381C181.79 100.098 183.732 100.068 185.061 100.295C186.39 100.521 187.482 101.027 188.338 101.812C189.193 102.597 189.748 103.547 190.002 104.663C190.258 105.791 190.167 106.965 189.729 108.185C189.29 109.406 188.41 110.498 187.087 111.463C185.765 112.426 183.84 113.196 181.313 113.772C177.743 114.584 175.084 114.651 173.338 113.978C171.592 113.304 170.291 112.078 169.435 110.299Z" fill="#263238"/>
<path d="M193.85 85.566L202.058 85.52L202.094 91.823L200.58 104.494L195.504 104.522L193.885 91.869L193.85 85.566ZM194.251 106.454L201.912 106.411L201.951 113.185L194.29 113.228L194.251 106.454Z" fill="#263238"/>
<path d="M128.679 171.581C128.619 171.581 128.558 171.57 128.498 171.547C123.997 169.804 121.304 168.101 119.906 166.055C118.89 166.259 117.753 166.124 116.674 165.611C115.626 165.113 114.617 164.242 113.893 162.989C113.218 163.51 112.384 163.652 111.468 163.364C110.452 163.045 109.395 162.189 108.516 160.953C107.957 161.357 107.384 161.418 106.964 161.383C103.991 161.141 99.9634 155.223 99.6744 148.916C99.6614 148.641 99.8754 148.406 100.151 148.395C100.421 148.372 100.661 148.595 100.673 148.872C100.947 154.857 104.782 160.203 107.046 160.387C107.413 160.423 107.72 160.308 107.978 160.108C106.62 157.725 105.915 154.327 106.955 150.696C107.815 147.691 108.575 146.516 109.487 146.734C111.21 147.163 110.984 153.706 110.071 158.022C109.864 159.001 109.566 159.703 109.226 160.205C110.015 161.37 110.95 162.154 111.769 162.412C112.501 162.642 113.043 162.447 113.443 162.066C112.657 160.13 112.494 157.492 113.561 154.127C114.965 149.698 115.53 149.578 115.868 149.507C116.106 149.456 116.344 149.535 116.513 149.727C117.437 150.77 116.333 157.649 115.169 161.051C115.018 161.493 114.83 161.88 114.612 162.208C115.233 163.425 116.148 164.254 117.105 164.709C117.873 165.074 118.661 165.207 119.378 165.14C119.288 164.951 119.207 164.759 119.134 164.564C118.341 162.417 118.729 159.938 120.319 156.986C121.374 155.028 122.234 154.115 123.026 154.114C123.261 154.114 123.702 154.201 124.013 154.776C124.885 156.385 124.254 161.695 122.53 164.33C122.124 164.951 121.563 165.422 120.912 165.728C122.252 167.49 124.796 169.042 128.861 170.618C129.118 170.718 129.246 171.007 129.147 171.264C129.069 171.46 128.879 171.581 128.679 171.581ZM123.025 155.111C123.022 155.111 122.46 155.115 121.198 157.458C119.752 160.143 119.383 162.353 120.071 164.215C120.155 164.443 120.255 164.665 120.371 164.885C120.905 164.656 121.362 164.284 121.692 163.781C123.092 161.64 123.763 157.243 123.242 155.524C123.135 155.172 123.026 155.111 123.025 155.111ZM115.853 150.898C115.595 151.383 115.161 152.382 114.513 154.427C113.655 157.135 113.65 159.311 114.128 160.975C114.161 160.891 114.192 160.807 114.221 160.724C115.397 157.286 115.97 152.55 115.853 150.898ZM109.267 147.748C109.098 147.903 108.612 148.533 107.915 150.969C106.996 154.182 107.562 157.113 108.642 159.215C108.849 158.781 108.993 158.281 109.092 157.813C110.129 152.902 109.827 148.459 109.267 147.748Z" fill="#263238"/>
<path d="M166.699 223.997C165.174 223.997 163.57 223.649 162.138 222.808C161.9 222.667 161.82 222.362 161.96 222.123C162.099 221.884 162.406 221.807 162.644 221.944C166.211 224.039 170.822 222.577 171.771 221.051C171.881 220.872 171.982 220.645 171.918 220.38C170.507 220.529 168.771 220.155 166.787 218.914C164.242 217.323 164.046 216.85 164.062 216.472C164.072 216.248 164.199 216.053 164.403 215.949C165.399 215.444 169.908 217.523 171.788 218.759C172.034 218.921 172.242 219.096 172.41 219.281C173.241 219.079 173.885 218.649 174.313 218.136C174.607 217.783 174.803 217.399 174.9 217.014C174.834 217.024 174.767 217.032 174.7 217.038C173.101 217.199 171.497 216.513 169.789 214.934C168.615 213.849 168.159 213.101 168.311 212.508C168.359 212.319 168.517 211.983 169.03 211.855C170.413 211.511 173.827 212.966 175.223 214.497C175.537 214.841 175.751 215.246 175.865 215.681C177.17 215.068 178.55 213.693 180.184 211.41C180.345 211.185 180.657 211.134 180.882 211.295C181.107 211.455 181.158 211.768 180.998 211.992C179.109 214.632 177.534 216.128 175.952 216.738C175.89 217.442 175.599 218.158 175.083 218.778C174.576 219.385 173.837 219.907 172.902 220.189C173.002 220.639 172.912 221.115 172.622 221.581C171.777 222.938 169.359 223.997 166.699 223.997ZM165.811 217.061C166.147 217.309 166.629 217.637 167.317 218.068C168.674 218.917 169.883 219.308 170.917 219.39C169.26 218.363 167.093 217.454 165.811 217.061ZM169.301 212.813C169.357 212.969 169.579 213.38 170.467 214.201C171.953 215.575 173.305 216.186 174.598 216.045C174.704 216.034 174.811 216.019 174.918 215.997C174.847 215.693 174.702 215.412 174.484 215.172C173.077 213.629 169.984 212.652 169.301 212.813Z" fill="#263238"/>
<path d="M179.942 222.625L164.36 225.455L150.213 148.243L120.149 153.704L71.1602 240.703L76.4202 269.411L139.257 257.997L143.559 281.478L173.623 276.017L169.321 252.537L184.903 249.706L179.942 222.625ZM101.094 236.948L127.053 191.381L134.297 230.917L101.094 236.948Z" fill="#FFD700"/>
<path d="M305.431 142.992C304.849 137.658 303.784 132.919 302.234 128.774C300.685 124.629 298.354 120.566 295.244 116.585C292.134 112.604 287.899 109.148 282.54 106.219C277.18 103.291 270.106 101.252 261.317 100.107C243.025 97.724 228.766 100.972 218.535 109.847C208.303 118.724 201.572 135.728 198.337 160.858C197.021 171.079 196.695 180.527 197.36 189.203C198.023 197.878 199.615 204.856 202.138 210.136C205.589 217.555 210.473 223.48 216.787 227.908C223.1 232.337 231.749 235.268 242.737 236.699C262.334 239.252 276.856 235.491 286.306 225.412C295.754 215.335 302.023 198.3 305.111 174.311C306.49 163.608 306.596 153.169 305.431 142.992Z" fill="#0D5FF9"/>
<path d="M251.768 226.433C249.363 226.351 246.804 226.134 244.161 225.789C235.007 224.597 227.924 222.28 223.108 218.901C218.356 215.569 214.761 211.185 212.116 205.495L212.067 205.392C210.144 201.369 208.888 195.639 208.332 188.364C207.727 180.476 208.036 171.695 209.25 162.262C212.819 134.541 220.191 122.975 225.747 118.155C232.225 112.535 240.968 109.995 252.477 110.389C254.835 110.47 257.332 110.681 259.898 111.015C267.284 111.977 273.128 113.611 277.268 115.872C281.277 118.063 284.41 120.582 286.578 123.357C288.982 126.433 290.783 129.552 291.932 132.626C293.155 135.896 294.018 139.785 294.498 144.184C295.563 153.493 295.462 163.137 294.205 172.906C291.432 194.445 286.076 209.579 278.285 217.887C272.506 224.052 263.833 226.848 251.771 226.434C251.769 226.433 251.768 226.433 251.768 226.433Z" fill="#263238"/>
<path d="M271.337 143.287L271.467 139.499L269.142 138.739C269.046 137.445 268.83 136.167 268.522 134.935L270.493 133.482L269.154 129.924L266.716 130.12C266.135 128.97 265.452 127.875 264.687 126.848L265.95 124.74L263.353 121.97L261.173 123.086C260.191 122.252 259.156 121.496 258.048 120.828L258.401 118.408L254.943 116.838L253.359 118.695C252.152 118.303 250.901 118.01 249.607 117.816L249.018 115.444L245.22 115.314L244.47 117.64C243.165 117.745 241.898 117.952 240.667 118.26L239.203 116.299L235.645 117.628L235.842 120.066C234.691 120.657 233.597 121.339 232.57 122.105L230.472 120.843L227.692 123.429L228.808 125.618C227.974 126.59 227.218 127.635 226.559 128.743L224.14 128.38L222.561 131.838L224.428 133.423C224.036 134.631 223.733 135.891 223.549 137.175L221.167 137.773L221.037 141.561L223.372 142.322C223.467 143.626 223.684 144.894 223.992 146.125L222.021 147.578L223.36 151.136L225.798 150.939C226.379 152.089 227.062 153.184 227.827 154.211L226.564 156.319L229.161 159.09L231.34 157.974C232.312 158.808 233.357 159.564 234.464 160.233L234.101 162.652L237.559 164.222L239.154 162.365C240.361 162.757 241.612 163.05 242.906 163.244L243.495 165.616L247.293 165.746L248.043 163.42C249.347 163.315 250.615 163.108 251.846 162.8L253.3 164.761L256.858 163.432L256.671 160.994C257.822 160.403 258.906 159.72 259.943 158.954L262.041 160.217L264.821 157.63L263.705 155.441C264.539 154.469 265.295 153.424 265.953 152.316L268.372 152.679L269.951 149.221L268.084 147.636C268.476 146.429 268.779 145.178 268.963 143.884L271.337 143.287ZM245.742 155.558C237.447 155.274 230.951 148.317 231.235 140.022C231.52 131.717 238.476 125.222 246.771 125.506C255.066 125.79 261.562 132.746 261.277 141.051C260.994 149.346 254.037 155.842 245.742 155.558Z" fill="#0D5FF9"/>
<path opacity="0.3" d="M287.123 212.865L287.398 210.312L285.863 209.686C285.858 208.808 285.782 207.939 285.636 207.092L287.036 206.203L286.325 203.733L284.663 203.746C284.328 202.939 283.933 202.164 283.467 201.435L284.415 200.075L282.81 198.077L281.279 198.715C280.668 198.109 280.008 197.548 279.288 197.044L279.66 195.418L277.409 194.183L276.233 195.371C275.426 195.027 274.592 194.776 273.756 194.584L273.473 192.948L270.92 192.662L270.294 194.197C269.416 194.202 268.559 194.29 267.7 194.436L266.812 193.024L264.341 193.747L264.354 195.409C263.558 195.745 262.784 196.14 262.043 196.606L260.683 195.646L258.686 197.251L259.324 198.782C258.729 199.394 258.157 200.053 257.652 200.773L256.037 200.413L254.802 202.664L255.979 203.828C255.647 204.648 255.385 205.47 255.192 206.317L253.556 206.588L253.281 209.141L254.815 209.779C254.809 210.645 254.896 211.514 255.043 212.362L253.632 213.25L254.355 215.721L256.017 215.719C256.353 216.515 256.747 217.289 257.214 218.019L256.255 219.379L257.86 221.388L259.404 220.739C260.015 221.345 260.674 221.906 261.395 222.411L261.023 224.037L263.274 225.273L264.449 224.096C265.257 224.428 266.091 224.679 266.927 224.871L267.21 226.507L269.763 226.793L270.389 225.258C271.255 225.253 272.124 225.166 272.983 225.02L273.871 226.431L276.33 225.708L276.329 224.046C277.125 223.71 277.899 223.316 278.64 222.85L279.988 223.809L281.997 222.205L281.347 220.673C281.953 220.062 282.514 219.402 283.03 218.683L284.644 219.042L285.879 216.791L284.702 215.627C285.034 214.808 285.285 213.985 285.477 213.149L287.123 212.865ZM274.25 211.874C273.064 214.033 270.345 214.83 268.186 213.644C266.027 212.458 265.242 209.74 266.428 207.581C267.614 205.422 270.32 204.637 272.48 205.822C274.639 207.008 275.435 209.715 274.25 211.874Z" fill="#0D5FF9"/>
<path d="M301.29 169.649L298.309 167.59C298.308 167.588 298.308 167.585 298.307 167.583C298.012 166.5 297.605 165.458 297.108 164.478L297.872 161.481L293.548 156.85L290.505 157.407C289.563 156.844 288.551 156.368 287.492 156C287.49 155.999 287.487 155.999 287.484 155.998L285.634 152.882L279.303 152.665L277.244 155.646C277.24 155.647 277.236 155.648 277.232 155.649C276.15 155.944 275.109 156.35 274.13 156.846L271.134 156.082L266.504 160.406L267.06 163.444C267.059 163.445 267.059 163.446 267.058 163.447C266.484 164.4 266.018 165.412 265.65 166.472L262.535 168.322L262.318 174.653L265.301 176.713C265.595 177.803 265.99 178.843 266.496 179.831C266.496 179.832 266.496 179.832 266.496 179.832L265.735 182.82L270.058 187.45L273.083 186.897C274.037 187.461 275.05 187.939 276.123 188.307C276.124 188.308 276.125 188.308 276.126 188.308L277.973 191.419L284.304 191.636L286.361 188.657C287.455 188.363 288.498 187.956 289.489 187.458C289.489 187.458 289.49 187.458 289.49 187.457L292.472 188.217L297.102 183.894L296.546 180.856C297.12 179.903 297.586 178.89 297.954 177.831L301.07 175.979L301.29 169.649ZM281.559 179.274C277.623 179.139 274.549 175.835 274.683 171.911C274.818 167.975 278.111 164.901 282.046 165.035C285.982 165.17 289.056 168.463 288.922 172.398C288.788 176.322 285.494 179.409 281.559 179.274Z" fill="white"/>
<path d="M323.045 119.124L323.566 117.867C323.567 117.867 323.568 117.866 323.569 117.866C323.943 117.673 324.294 117.441 324.615 117.181L325.776 117.225L327.136 115.273L326.692 114.199C326.824 113.809 326.92 113.4 326.971 112.982C326.971 112.981 326.971 112.98 326.971 112.979L327.969 112.054L327.55 109.712L326.293 109.191C326.292 109.19 326.292 109.188 326.291 109.187C326.098 108.813 325.867 108.463 325.607 108.142L325.651 106.982L323.699 105.622L322.627 106.065H322.626C322.231 105.929 321.823 105.838 321.405 105.786L320.48 104.788L318.138 105.207L317.616 106.465C317.239 106.659 316.888 106.886 316.565 107.15L315.408 107.106L314.049 109.058L314.49 110.125C314.358 110.52 314.262 110.929 314.212 111.352L313.215 112.276L313.634 114.618L314.89 115.139C315.084 115.518 315.316 115.869 315.577 116.193L315.533 117.348L317.485 118.708L318.557 118.264C318.952 118.4 319.361 118.491 319.779 118.543L320.704 119.542L323.045 119.124ZM317.956 112.637C317.696 111.181 318.667 109.792 320.118 109.532C321.574 109.272 322.962 110.238 323.223 111.694C323.484 113.15 322.516 114.538 321.061 114.799C319.61 115.059 318.217 114.093 317.956 112.637Z" fill="#0D5FF9"/>
<path d="M295.608 112.489L294.844 111.844C296.172 110.272 298.055 108.28 300.852 106.815L301.316 107.702C298.334 109.263 296.424 111.524 295.608 112.489Z" fill="#0D5FF9"/>
<path d="M303.592 106.802L303.197 105.882C306.98 104.262 310.932 103.63 314.936 104.002L314.843 104.998C311.003 104.632 307.219 105.246 303.592 106.802Z" fill="#0D5FF9"/>
<path d="M301.705 113.72L300.879 113.157C302.933 110.14 306.992 107.513 310.75 106.768L310.944 107.748C307.422 108.448 303.623 110.903 301.705 113.72Z" fill="#0D5FF9"/>
<path d="M235.343 209.957C235.209 209.957 235.079 209.903 234.984 209.805L232.887 207.644C231.819 207.543 230.763 207.347 229.741 207.058L226.473 208.499C226.318 208.57 226.138 208.552 225.995 208.459L220.52 204.829C220.378 204.734 220.294 204.575 220.296 204.404L220.35 200.841C219.685 200.013 219.092 199.114 218.584 198.164L215.779 197.076C215.62 197.014 215.504 196.877 215.469 196.71L214.164 190.272C214.13 190.105 214.184 189.932 214.306 189.813L216.467 187.717C216.567 186.654 216.763 185.597 217.051 184.568L215.612 181.304C215.543 181.148 215.559 180.968 215.652 180.825L219.281 175.349C219.375 175.207 219.509 175.119 219.706 175.125L223.267 175.18C224.103 174.512 225.003 173.919 225.946 173.415L227.034 170.608C227.096 170.449 227.234 170.333 227.401 170.298L233.839 168.992C234.006 168.96 234.179 169.012 234.297 169.134L236.391 171.293C237.455 171.393 238.513 171.59 239.544 171.878L242.807 170.439C242.962 170.371 243.142 170.386 243.285 170.48L248.76 174.109C248.902 174.204 248.986 174.363 248.984 174.534L248.93 178.099C249.596 178.928 250.188 179.827 250.694 180.774L253.501 181.863C253.66 181.925 253.776 182.062 253.811 182.229L255.116 188.667C255.15 188.834 255.096 189.007 254.974 189.126L252.812 191.223C252.713 192.274 252.517 193.329 252.227 194.366L253.668 197.635C253.737 197.791 253.721 197.972 253.628 198.114L250 203.591C249.906 203.733 249.756 203.804 249.576 203.815L246.013 203.761C245.183 204.423 244.284 205.014 243.338 205.52L242.247 208.333C242.186 208.492 242.047 208.608 241.88 208.643L235.442 209.949C235.409 209.954 235.376 209.957 235.343 209.957ZM229.706 206.027C229.753 206.027 229.801 206.034 229.847 206.048C230.918 206.362 232.031 206.57 233.158 206.664C233.279 206.674 233.391 206.727 233.475 206.814L235.511 208.913L241.413 207.716L242.473 204.984C242.517 204.871 242.601 204.777 242.708 204.721C243.711 204.198 244.658 203.576 245.523 202.87C245.614 202.796 245.717 202.745 245.846 202.758L249.317 202.811L252.644 197.791L251.24 194.607C251.193 194.5 251.185 194.378 251.218 194.265C251.534 193.174 251.741 192.06 251.834 190.954C251.844 190.833 251.897 190.721 251.984 190.636L254.083 188.6L252.887 182.699L250.16 181.641C250.044 181.596 249.949 181.51 249.893 181.399C249.373 180.399 248.75 179.456 248.042 178.593C247.967 178.501 247.926 178.386 247.928 178.268L247.981 174.794L242.961 171.467L239.785 172.867C239.677 172.914 239.557 172.922 239.444 172.89C238.36 172.575 237.242 172.367 236.121 172.274C236 172.264 235.888 172.21 235.804 172.125L233.771 170.028L227.869 171.225L226.812 173.952C226.768 174.065 226.684 174.159 226.576 174.215C225.58 174.734 224.632 175.358 223.76 176.069C223.669 176.143 223.547 176.196 223.435 176.183L219.965 176.129L216.638 181.149L218.04 184.328C218.1 184.465 218.096 184.621 218.03 184.754C217.748 185.753 217.541 186.868 217.447 187.987C217.437 188.107 217.384 188.219 217.297 188.304L215.199 190.339L216.395 196.24L219.121 197.297C219.243 197.344 219.341 197.437 219.394 197.554C219.912 198.546 220.534 199.488 221.238 200.345C221.313 200.437 221.355 200.554 221.353 200.672L221.3 204.144L226.32 207.472L229.504 206.068C229.568 206.042 229.637 206.027 229.706 206.027ZM234.624 202.792C232.096 202.792 229.542 202.076 227.281 200.578C224.315 198.612 222.291 195.608 221.582 192.121C220.873 188.633 221.566 185.078 223.532 182.111H223.533C227.598 175.986 235.885 174.304 242.006 178.361C248.128 182.424 249.808 190.711 245.75 196.835C243.189 200.698 238.945 202.792 234.624 202.792ZM224.366 182.664C222.548 185.407 221.907 188.695 222.563 191.922C223.218 195.148 225.09 197.926 227.834 199.744C233.501 203.498 241.163 201.945 244.915 196.282C248.669 190.618 247.116 182.952 241.453 179.195C235.791 175.442 228.126 176.998 224.366 182.664Z" fill="white"/>
<path d="M425.826 231.65L410.131 229.532L420.511 151.724L390.23 147.638L316.777 215.264L312.918 244.193L376.21 252.735L373.054 276.397L403.335 280.483L406.491 256.821L422.186 258.939L425.826 231.65ZM346.408 220.932L385.166 185.604L379.851 225.445L346.408 220.932Z" fill="#0D5FF9"/>
<path d="M394.133 279.741C394.103 279.741 394.073 279.738 394.043 279.733C393.772 279.683 393.591 279.423 393.641 279.151L416.967 151.221C417.016 150.951 417.279 150.781 417.548 150.819C417.82 150.869 418 151.13 417.95 151.401L394.624 279.331C394.58 279.572 394.37 279.741 394.133 279.741Z" fill="#263238"/>
<path d="M414.83 153.37C414.814 153.822 414.435 154.176 413.983 154.161C413.531 154.145 413.177 153.766 413.192 153.314C413.207 152.862 413.587 152.508 414.039 152.523C414.492 152.538 414.846 152.917 414.83 153.37Z" fill="#263238"/>
<path d="M411.498 170.671C411.482 171.123 411.103 171.477 410.651 171.462C410.199 171.447 409.845 171.067 409.86 170.615C409.875 170.163 410.255 169.809 410.707 169.824C411.159 169.839 411.513 170.218 411.498 170.671Z" fill="#263238"/>
<path d="M408.166 187.971C408.15 188.423 407.771 188.777 407.319 188.762C406.867 188.747 406.513 188.367 406.528 187.915C406.543 187.463 406.923 187.109 407.375 187.124C407.828 187.14 408.182 187.519 408.166 187.971Z" fill="#263238"/>
<path d="M401.613 205.982C401.597 206.434 401.218 206.788 400.766 206.773C400.314 206.757 399.96 206.378 399.975 205.926C399.99 205.474 400.37 205.12 400.822 205.135C401.274 205.15 401.629 205.529 401.613 205.982Z" fill="#263238"/>
<path d="M401.5 222.573C401.484 223.025 401.105 223.379 400.653 223.364C400.201 223.348 399.847 222.969 399.862 222.517C399.877 222.065 400.257 221.711 400.709 221.726C401.162 221.741 401.516 222.121 401.5 222.573Z" fill="#263238"/>
<path d="M398.168 239.874C398.152 240.326 397.773 240.68 397.321 240.665C396.869 240.65 396.515 240.27 396.53 239.818C396.545 239.366 396.925 239.012 397.377 239.027C397.829 239.042 398.183 239.421 398.168 239.874Z" fill="#263238"/>
<path d="M394.836 257.175C394.82 257.627 394.441 257.981 393.989 257.966C393.537 257.95 393.183 257.571 393.198 257.119C393.214 256.667 393.593 256.313 394.045 256.328C394.498 256.343 394.852 256.722 394.836 257.175Z" fill="#263238"/>
<path d="M391.504 274.475C391.488 274.927 391.109 275.281 390.657 275.266C390.205 275.251 389.851 274.871 389.866 274.419C389.881 273.967 390.261 273.613 390.713 273.628C391.165 273.643 391.519 274.023 391.504 274.475Z" fill="#263238"/>
<path d="M400.794 206.454C400.564 206.454 400.356 206.294 400.306 206.058C400.248 205.788 400.42 205.523 400.69 205.464L403.174 204.931C403.448 204.877 403.71 205.044 403.768 205.316C403.826 205.586 403.654 205.851 403.384 205.91L400.9 206.443C400.864 206.45 400.829 206.454 400.794 206.454Z" fill="#263238"/>
<path d="M409.085 197.241C409.085 197.241 406.847 203.07 406.094 206.602C405.341 210.134 405.295 218.026 405.295 218.026" fill="#263238"/>
<path d="M405.295 218.526H405.292C405.016 218.524 404.793 218.299 404.795 218.023C404.797 217.699 404.849 210.039 405.605 206.497C406.358 202.968 408.526 197.302 408.618 197.061C408.717 196.804 409.005 196.676 409.264 196.774C409.522 196.873 409.651 197.163 409.552 197.42C409.53 197.479 407.32 203.254 406.583 206.706C405.849 210.148 405.796 217.951 405.795 218.029C405.793 218.305 405.57 218.526 405.295 218.526Z" fill="#263238"/>
<path d="M222.451 304.841C223.84 282.438 221.285 241.714 263.395 247.105C308.53 252.883 295.617 305.661 295.617 305.661L222.451 304.841Z" fill="#263238"/>
<path d="M251.514 291.375C261.662 291.375 269.889 283.148 269.889 273C269.889 262.852 261.662 254.625 251.514 254.625C241.365 254.625 233.139 262.852 233.139 273C233.139 283.148 241.365 291.375 251.514 291.375Z" fill="white"/>
<path d="M253.925 254.654C245.221 253.168 235.915 259.584 234.998 266.084L269.505 269.257C268.289 261.847 260.831 255.833 253.925 254.654Z" fill="#263238"/>
<path d="M265.576 272.543C265.329 277.347 262.711 281.117 259.728 280.964C256.745 280.811 254.527 276.792 254.773 271.988C255.02 267.184 257.638 263.414 260.621 263.567C263.604 263.72 265.823 267.739 265.576 272.543Z" fill="#263238"/>
<path d="M251.513 292.375C240.829 292.375 232.137 283.684 232.137 273C232.137 262.316 240.829 253.625 251.513 253.625C262.197 253.625 270.888 262.316 270.888 273C270.888 283.684 262.196 292.375 251.513 292.375ZM251.513 255.625C241.932 255.625 234.137 263.419 234.137 273C234.137 282.581 241.931 290.375 251.513 290.375C261.094 290.375 268.888 282.581 268.888 273C268.888 263.419 261.093 255.625 251.513 255.625Z" fill="#407BFF"/>
<path opacity="0.3" d="M290.484 304.277C290.445 304.277 290.406 304.272 290.366 304.263C290.098 304.198 289.932 303.928 289.997 303.659C290.03 303.524 293.216 289.965 289.907 276.256C289.842 275.988 290.007 275.718 290.276 275.652C290.541 275.592 290.814 275.752 290.879 276.021C294.247 289.971 291.003 303.755 290.969 303.893C290.914 304.124 290.71 304.277 290.484 304.277Z" fill="white"/>
<path opacity="0.3" d="M287.697 268.759C287.507 268.759 287.326 268.651 287.242 268.467C285.956 265.661 284.361 263.085 282.5 260.81C282.325 260.596 282.357 260.282 282.571 260.107C282.784 259.931 283.099 259.962 283.275 260.177C285.189 262.518 286.83 265.167 288.151 268.051C288.266 268.302 288.156 268.599 287.905 268.713C287.837 268.744 287.767 268.759 287.697 268.759Z" fill="white"/>
<path d="M128.735 409.918C128.611 409.918 128.487 409.917 128.363 409.913C125.603 409.837 123.427 407.538 123.502 404.777C123.577 402.017 125.851 399.882 128.637 399.917C128.668 399.918 128.7 399.918 128.733 399.918C131.622 399.918 138.572 396.408 153.111 373.488C153.892 372.258 155.172 371.428 156.614 371.218C158.059 371.013 159.519 371.441 160.619 372.398C178.56 388.041 197.573 397.778 197.763 397.875C200.224 399.125 201.207 402.135 199.957 404.596C198.707 407.058 195.699 408.043 193.238 406.792C192.483 406.409 175.864 397.912 158.44 383.646C146.254 401.965 137.211 409.918 128.735 409.918Z" fill="#263238"/>
<path d="M159.67 371.5C159.528 371.5 159.386 371.49 159.242 371.47C157.602 371.236 156.462 369.716 156.697 368.075C157.408 363.098 156.527 344.449 150.222 329.949C149.647 328.628 150.093 327.085 151.284 326.273C164.982 316.938 194.16 315.822 195.396 315.779C197.043 315.743 198.44 317.017 198.498 318.673C198.556 320.328 197.26 321.718 195.605 321.775C195.335 321.785 169.825 322.763 156.717 329.977C162.301 344.415 163.567 362.414 162.636 368.924C162.422 370.421 161.139 371.5 159.67 371.5Z" fill="#263238"/>
<path d="M164.709 367.616C162.714 362.91 153.721 363.445 148.441 367.478C145.619 369.633 141.8 376.119 141.398 378.469C140.997 380.82 142.625 382.949 145.421 382.707C148.869 382.409 153.602 377.398 153.602 377.398C150.453 380.486 154.516 382.665 160.579 378.199C163.943 375.722 166.943 372.886 164.709 367.616Z" fill="#407BFF"/>
<path d="M336.705 306.161C336.66 306.161 336.613 306.155 336.567 306.141C336.302 306.065 336.148 305.787 336.225 305.523C337.557 300.883 339.012 298.048 340.925 296.472C340.632 295.476 340.665 294.332 341.078 293.213C341.48 292.124 342.257 291.042 343.44 290.208C342.861 289.582 342.645 288.763 342.85 287.826C343.077 286.785 343.834 285.656 344.986 284.67C344.533 284.149 344.422 283.582 344.419 283.162C344.394 280.18 349.926 275.637 356.181 274.783C356.455 274.732 356.707 274.936 356.744 275.211C356.781 275.484 356.59 275.736 356.316 275.774C350.378 276.585 345.399 280.883 345.419 283.154C345.422 283.522 345.558 283.818 345.781 284.057C348.032 282.49 351.355 281.482 355.063 282.194C358.132 282.781 359.38 283.429 359.236 284.361C358.964 286.114 352.427 286.476 348.046 285.955C347.053 285.837 346.326 285.602 345.796 285.309C344.707 286.2 344.009 287.2 343.827 288.039C343.664 288.788 343.906 289.31 344.322 289.675C346.178 288.718 348.791 288.318 352.238 289.08C356.775 290.081 356.944 290.634 357.046 290.963C357.118 291.198 357.06 291.44 356.885 291.625C355.929 292.638 348.979 292.157 345.487 291.302C345.032 291.191 344.631 291.039 344.284 290.851C343.127 291.58 342.383 292.564 342.016 293.559C341.722 294.357 341.655 295.152 341.79 295.862C341.97 295.755 342.154 295.657 342.342 295.567C344.411 294.585 346.913 294.75 349.996 296.068C352.041 296.944 353.027 297.718 353.099 298.507C353.121 298.74 353.075 299.187 352.529 299.549C351.004 300.562 345.659 300.408 342.881 298.929C342.226 298.579 341.707 298.064 341.343 297.443C339.708 298.936 338.39 301.609 337.187 305.798C337.122 306.019 336.922 306.161 336.705 306.161ZM342.13 296.83C342.406 297.342 342.817 297.764 343.349 298.047C345.606 299.248 350.045 299.523 351.711 298.851C352.051 298.713 352.102 298.598 352.102 298.598C352.102 298.595 352.047 298.035 349.601 296.989C346.798 295.79 344.563 295.622 342.77 296.471C342.552 296.575 342.338 296.694 342.13 296.83ZM345.464 290.262C345.55 290.287 345.637 290.311 345.722 290.332C349.253 291.196 354.02 291.344 355.655 291.075C355.149 290.861 354.115 290.519 352.02 290.057C349.247 289.446 347.079 289.637 345.464 290.262ZM346.726 284.64C347.177 284.808 347.687 284.907 348.163 284.963C353.146 285.553 357.545 284.856 358.203 284.235C358.033 284.081 357.362 283.653 354.874 283.177C351.591 282.552 348.723 283.375 346.726 284.64Z" fill="#263238"/>
<path d="M206.527 408.248C207.186 408.037 206.965 407.401 206.23 407.401H192.691C166.91 404.671 148.897 408.33 160.248 409.193C171.598 410.056 159.449 409.875 151.16 413.01C142.871 416.146 212.814 416.936 219.175 413.01C225.041 409.389 197.392 411.176 206.527 408.248Z" fill="#263238"/>
<path d="M303.468 412.238L185.666 408.333L180.777 294.111L319.888 297.222L303.468 412.238Z" fill="#407BFF"/>
<path d="M222.451 410.053C222.193 410.053 221.974 409.856 221.953 409.594L212.51 294.873C212.487 294.598 212.692 294.356 212.968 294.334C213.251 294.318 213.485 294.516 213.507 294.791L222.95 409.512C222.972 409.787 222.768 410.029 222.492 410.051C222.478 410.052 222.464 410.053 222.451 410.053Z" fill="#263238"/>
<path d="M303.469 412.238L335.131 407.418L345.104 301.208L319.889 297.222L303.469 412.238Z" fill="#407BFF"/>
<path opacity="0.2" d="M303.469 412.238L335.131 407.418L345.104 301.208L319.889 297.222L303.469 412.238Z" fill="black"/>
<path d="M195.734 386.316L192.83 318.455C192.527 311.371 198.274 305.506 205.362 305.665L293.421 307.634C300.775 307.798 306.332 314.352 305.292 321.634L295.529 390.025C294.644 396.223 289.234 400.761 282.977 400.553L207.586 398.054C201.174 397.841 196.009 392.725 195.734 386.316Z" fill="#263238"/>
<path d="M205.246 326.488L218.87 326.922L218.758 330.435L210.229 330.164L210.146 332.779L218.058 333.031L217.951 336.386L210.039 336.134L209.936 339.377L218.712 339.656L218.594 343.382L204.723 342.941L205.246 326.488Z" fill="white"/>
<path d="M221.398 343.471L221.921 327.019L230.394 327.289C231.965 327.339 233.162 327.512 233.983 327.808C234.805 328.104 235.458 328.624 235.944 329.37C236.43 330.116 236.656 331.012 236.622 332.06C236.593 332.973 236.373 333.754 235.963 334.404C235.553 335.054 235 335.574 234.306 335.963C233.864 336.211 233.262 336.409 232.5 336.557C233.099 336.779 233.534 336.995 233.804 337.205C233.986 337.346 234.248 337.643 234.589 338.096C234.93 338.549 235.157 338.897 235.269 339.141L237.579 343.987L231.835 343.804L229.278 338.69C228.954 338.029 228.661 337.596 228.398 337.393C228.039 337.127 227.628 336.986 227.164 336.971L226.715 336.957L226.503 343.635L221.398 343.471ZM226.816 333.848L228.959 333.916C229.191 333.923 229.642 333.863 230.313 333.735C230.652 333.678 230.932 333.515 231.154 333.245C231.376 332.975 231.493 332.66 231.504 332.301C231.521 331.77 231.366 331.357 231.038 331.062C230.71 330.767 230.083 330.605 229.155 330.575L226.922 330.504L226.816 333.848Z" fill="white"/>
<path d="M239.275 344.04L239.798 327.588L248.271 327.858C249.842 327.908 251.039 328.081 251.86 328.377C252.682 328.673 253.335 329.193 253.821 329.939C254.307 330.685 254.533 331.582 254.499 332.629C254.47 333.542 254.25 334.323 253.84 334.973C253.429 335.623 252.877 336.143 252.183 336.532C251.741 336.78 251.139 336.978 250.377 337.126C250.976 337.348 251.411 337.564 251.681 337.774C251.864 337.915 252.125 338.212 252.467 338.665C252.808 339.118 253.035 339.466 253.147 339.71L255.457 344.556L249.712 344.373L247.155 339.259C246.832 338.598 246.538 338.165 246.275 337.962C245.916 337.696 245.505 337.555 245.041 337.54L244.592 337.526L244.38 344.203L239.275 344.04ZM244.693 334.417L246.836 334.485C247.068 334.492 247.519 334.432 248.19 334.303C248.529 334.246 248.809 334.083 249.031 333.813C249.253 333.543 249.37 333.228 249.381 332.869C249.398 332.338 249.243 331.925 248.915 331.63C248.587 331.335 247.959 331.173 247.032 331.143L244.799 331.072L244.693 334.417Z" fill="white"/>
<path d="M256.314 336.359C256.4 333.673 257.214 331.606 258.758 330.157C260.302 328.709 262.409 328.027 265.08 328.112C267.818 328.199 269.905 329.001 271.339 330.518C272.774 332.035 273.449 334.118 273.365 336.767C273.304 338.69 272.93 340.257 272.244 341.467C271.557 342.677 270.592 343.605 269.347 344.251C268.102 344.897 266.567 345.19 264.741 345.132C262.886 345.073 261.36 344.729 260.163 344.099C258.966 343.469 258.01 342.503 257.295 341.199C256.58 339.895 256.253 338.282 256.314 336.359ZM261.397 336.543C261.344 338.204 261.615 339.407 262.209 340.152C262.803 340.897 263.631 341.287 264.694 341.321C265.786 341.356 266.643 341.027 267.264 340.336C267.885 339.644 268.225 338.378 268.284 336.537C268.333 334.989 268.057 333.847 267.455 333.113C266.853 332.378 266.017 331.994 264.947 331.96C263.922 331.927 263.087 332.264 262.443 332.97C261.799 333.676 261.45 334.867 261.397 336.543Z" fill="white"/>
<path d="M275.906 345.205L276.429 328.753L284.902 329.023C286.473 329.073 287.67 329.246 288.491 329.542C289.313 329.838 289.966 330.358 290.452 331.104C290.938 331.85 291.164 332.747 291.13 333.794C291.101 334.707 290.881 335.488 290.471 336.138C290.061 336.788 289.508 337.308 288.814 337.697C288.371 337.945 287.769 338.143 287.008 338.291C287.607 338.513 288.042 338.729 288.312 338.939C288.494 339.08 288.756 339.377 289.097 339.83C289.438 340.283 289.665 340.631 289.777 340.875L292.087 345.721L286.343 345.538L283.786 340.424C283.462 339.763 283.169 339.33 282.906 339.127C282.547 338.861 282.136 338.72 281.672 338.705L281.223 338.691L281.011 345.368L275.906 345.205ZM281.324 335.582L283.467 335.65C283.699 335.657 284.15 335.597 284.821 335.468C285.16 335.411 285.44 335.248 285.662 334.978C285.884 334.708 286.001 334.393 286.012 334.034C286.029 333.503 285.874 333.09 285.546 332.795C285.218 332.5 284.591 332.338 283.663 332.308L281.43 332.237L281.324 335.582Z" fill="white"/>
<path d="M283.998 373.158C283.642 373.158 283.288 373.014 283.028 372.731L274.467 363.362L265.23 371.801C264.695 372.291 263.865 372.252 263.376 371.718L254.815 362.349L245.578 370.788C245.043 371.277 244.212 371.239 243.724 370.705L235.163 361.336L225.926 369.776C225.67 370.011 225.324 370.134 224.982 370.119C224.634 370.103 224.307 369.95 224.072 369.693L215.511 360.324L206.274 368.763C205.739 369.252 204.909 369.213 204.42 368.68C203.931 368.145 203.969 367.314 204.504 366.825L214.709 357.5C215.244 357.009 216.074 357.048 216.564 357.583L225.125 366.952L234.362 358.512C234.618 358.277 234.963 358.155 235.306 358.169C235.654 358.185 235.981 358.338 236.216 358.595L244.777 367.964L254.014 359.525C254.548 359.035 255.379 359.073 255.868 359.608L264.429 368.977L273.666 360.538C274.201 360.047 275.031 360.085 275.521 360.621L284.967 370.959C285.456 371.494 285.418 372.325 284.883 372.814C284.631 373.045 284.314 373.158 283.998 373.158Z" fill="white"/>
<path d="M125.749 414.667L119.491 411.682L113.908 384.515L116.938 381.178L125.749 414.667Z" fill="#407BFF"/>
<path d="M125.748 414.667L134.053 409.815L126.933 387.432L116.938 381.178L125.748 414.667Z" fill="#407BFF"/>
<path opacity="0.2" d="M125.748 414.667L134.053 409.815L126.933 387.432L116.938 381.178L125.748 414.667Z" fill="black"/>
<path d="M261.948 419.605C261.712 419.605 261.481 419.601 261.257 419.595C258.497 419.519 256.32 417.22 256.396 414.459C256.472 411.7 258.752 409.53 261.531 409.599C269.234 409.851 285.537 405.119 294.85 396.078C295.426 395.519 296.127 395.107 296.896 394.877C312.684 390.139 318.56 399.711 318.803 400.121L310.196 405.211C310.196 405.211 310.229 405.28 310.311 405.394C310.215 405.262 307.98 402.355 300.859 404.154C289.172 414.822 271.232 419.605 261.948 419.605Z" fill="#263238"/>
<path d="M261.394 426.252L243.181 425.104L241.744 391.528L266.221 392.443L261.394 426.252Z" fill="#407BFF"/>
<path d="M261.395 426.252L265.652 422.015L268.291 401.079L266.222 392.443L261.395 426.252Z" fill="#407BFF"/>
<path opacity="0.2" d="M261.395 426.252L265.652 422.015L268.291 401.079L266.222 392.443L261.395 426.252Z" fill="black"/>
<path d="M366.909 413.537C366.277 413.537 365.639 413.338 365.096 412.926C354.701 405.026 340.651 391 335.259 377.469C335.18 377.272 335.123 377.066 335.088 376.856C332.459 361.223 329.947 328.315 329.841 326.921C329.716 325.27 330.953 323.828 332.605 323.703C334.252 323.582 335.698 324.815 335.823 326.468C335.849 326.804 338.386 360.034 340.951 375.541C346.329 388.697 360.908 402.207 368.726 408.148C370.045 409.151 370.302 411.033 369.299 412.352C368.71 413.129 367.815 413.537 366.909 413.537Z" fill="#263238"/>
<path d="M380.778 415.053C378.459 415.053 375.829 414.001 372.964 411.928C371.622 410.956 371.321 409.081 372.293 407.739C373.265 406.397 375.14 406.096 376.482 407.067C378.959 408.86 380.312 409.053 380.779 409.053C382.436 409.053 383.779 410.396 383.779 412.053C383.778 413.71 382.435 415.053 380.778 415.053Z" fill="#263238"/>
<path d="M373.803 411.842C377.013 402.307 390.173 404.191 394.705 405.607C399.237 407.023 403.32 408.805 405.775 410.41C408.23 412.015 408.269 414.695 404.996 416.226C400.96 418.114 390.835 416.439 390.835 416.439C396.076 418.734 390.825 422.411 381.63 418.799C378.636 417.623 372.67 415.336 373.803 411.842Z" fill="#407BFF"/>
<path d="M341.862 331.036C340.671 339.138 333.962 345.112 328.504 344.31C323.046 343.508 322.819 336.272 324.01 328.17C325.201 320.068 327.359 314.169 332.817 314.971C338.275 315.774 343.053 322.935 341.862 331.036Z" fill="#263238"/>
<path d="M209.874 298.694C210.326 298.694 210.693 298.327 210.693 297.875C210.693 297.423 210.326 297.056 209.874 297.056C209.421 297.056 209.055 297.423 209.055 297.875C209.055 298.327 209.421 298.694 209.874 298.694Z" fill="#263238"/>
<path d="M218.207 303.778C218.207 304.23 217.84 304.597 217.388 304.597C216.936 304.597 216.568 304.23 216.568 303.778C216.568 303.325 216.935 302.959 217.388 302.959C217.841 302.959 218.207 303.325 218.207 303.778Z" fill="#263238"/>
<path d="M219.123 400.683C219.123 401.136 218.756 401.502 218.304 401.502C217.851 401.502 217.484 401.135 217.484 400.683C217.484 400.23 217.851 399.864 218.304 399.864C218.756 399.863 219.123 400.23 219.123 400.683Z" fill="#263238"/>
<path d="M226.639 406.586C226.639 407.039 226.272 407.405 225.819 407.405C225.367 407.405 225 407.038 225 406.586C225 406.133 225.367 405.767 225.819 405.767C226.272 405.766 226.639 406.133 226.639 406.586Z" fill="#263238"/>
<path d="M82.5099 416.419C80.1299 416.419 76.9119 414.977 75.1769 412.47C75.0199 412.243 75.0759 411.932 75.3029 411.775C75.5299 411.617 75.8409 411.674 75.9989 411.902C77.8649 414.596 81.9779 416.033 83.8039 415.182C83.9959 415.092 84.1519 414.979 84.2709 414.843C82.6389 414.089 81.1469 412.613 80.7449 410.361C80.5179 409.094 80.3379 407.381 81.3839 407.144C82.8179 406.822 84.6939 410.29 85.4159 412.919C85.5499 413.405 85.5919 413.856 85.5459 414.262C86.1779 414.435 86.7999 414.48 87.3329 414.403C87.7659 414.34 88.3809 414.162 88.7079 413.658C87.4929 412.837 86.6759 411.389 86.4029 409.469C86.0149 406.735 86.3059 406.258 86.6089 406.025C86.8059 405.874 87.0559 405.845 87.2969 405.947C88.3659 406.402 89.6619 410.281 89.9099 412.476C89.9369 412.718 89.9369 412.95 89.9129 413.169C90.3219 413.332 90.7729 413.421 91.2619 413.431C92.1289 413.481 92.9859 413.205 93.6719 412.802C93.5299 412.713 93.3959 412.614 93.2699 412.507C92.2319 411.62 91.8139 410.203 91.9899 408.176C92.1259 406.609 92.4829 405.752 93.1129 405.483C93.3339 405.385 93.7839 405.294 94.3209 405.722C95.4009 406.585 96.4089 409.32 96.0469 411.279C95.9719 411.684 95.7969 412.073 95.5449 412.43C97.3799 412.746 99.9619 412.231 102.189 411.681C102.456 411.616 102.728 411.778 102.794 412.046C102.86 412.315 102.697 412.585 102.429 412.651C99.7189 413.321 96.8019 413.866 94.7409 413.268C93.8249 413.997 92.5349 414.439 91.2429 414.43C90.6539 414.418 90.1049 414.313 89.6039 414.122C89.2099 414.793 88.4769 415.247 87.4799 415.393C86.8159 415.492 86.0339 415.428 85.2419 415.202C85.0169 415.577 84.6769 415.878 84.2289 416.088C83.7489 416.31 83.1609 416.418 82.5099 416.419ZM81.6459 408.142C81.5879 408.295 81.4829 408.801 81.7309 410.186C82.0599 412.026 83.2509 413.249 84.5699 413.894C84.5639 413.681 84.5249 413.445 84.4539 413.186C83.6679 410.327 82.1749 408.357 81.6459 408.142ZM87.2169 407.27C87.2109 407.646 87.2449 408.278 87.3939 409.329C87.5969 410.757 88.1229 411.853 88.9129 412.552C88.6789 410.543 87.7879 408.218 87.2169 407.27ZM93.5079 406.401H93.5059C93.5039 406.402 93.1309 406.591 92.9849 408.261C92.8389 409.944 93.1449 411.084 93.9189 411.745C94.0949 411.895 94.2949 412.021 94.5179 412.124C94.8009 411.811 94.9939 411.461 95.0609 411.096C95.3289 409.647 94.6389 407.525 93.8649 406.666C93.6649 406.443 93.5359 406.401 93.5079 406.401Z" fill="#263238"/>
<path d="M228.872 423.978L231.582 419.278L228.872 414.578H225.971L227.61 419.278L225.971 423.978H228.872Z" fill="#263238"/>
<path d="M226.162 421.728C224.812 421.728 223.712 420.628 223.712 419.278C223.712 417.928 224.812 416.838 226.162 416.838L221.554 415.916L220.332 419.637L222.388 422.776L226.162 421.728Z" fill="#263238"/>
<path d="M226.556 414.578H221.126L218.416 419.278L221.126 423.978H226.556L229.266 419.278L226.556 414.578ZM223.846 421.728C222.496 421.728 221.396 420.628 221.396 419.278C221.396 417.928 222.496 416.838 223.846 416.838C225.196 416.838 226.286 417.928 226.286 419.278C226.286 420.628 225.196 421.728 223.846 421.728Z" fill="#407BFF"/>
<path d="M417.889 414.265L415.877 410.774L417.889 407.284H420.044L418.827 410.775L420.044 414.265H417.889Z" fill="#407BFF"/>
<path d="M419.902 412.594C420.905 412.594 421.722 411.777 421.722 410.774C421.722 409.772 420.905 408.962 419.902 408.962L423.324 408.277L424.232 411.041L422.705 413.372L419.902 412.594Z" fill="#407BFF"/>
<path d="M419.611 407.284H423.644L425.657 410.774L423.644 414.265H419.611L417.598 410.774L419.611 407.284ZM421.624 412.594C422.627 412.594 423.444 411.777 423.444 410.774C423.444 409.772 422.627 408.962 421.624 408.962C420.621 408.962 419.812 409.772 419.812 410.774C419.811 411.777 420.621 412.594 421.624 412.594Z" fill="#263238"/>
<path d="M342.948 418.898H347.466C348.642 418.898 349.605 417.936 349.605 416.759C349.605 415.583 348.642 414.62 347.466 414.62H342.948C341.771 414.62 340.809 415.583 340.809 416.759C340.809 417.936 341.771 418.898 342.948 418.898Z" fill="#263238"/>
<path d="M335.73 414.863C336.846 412.497 339.55 411.428 341.772 412.475C343.993 413.522 344.889 416.289 343.774 418.655C342.659 421.021 339.954 422.09 337.733 421.043C335.51 419.996 334.614 417.229 335.73 414.863Z" fill="#407BFF"/>
<path d="M337.001 421.024L338.24 421.608L342.549 412.471L341.31 411.886L337.001 421.024Z" fill="#263238"/>
</svg>
