<svg width="191" height="23" viewBox="0 0 191 23" fill="none" xmlns="http://www.w3.org/2000/svg">
<path d="M6.24882 0.0555439C5.34224 0.103575 4.2075 0.277689 3.40298 0.481821C2.71853 0.655933 2.62847 0.764004 2.59845 1.40642L2.57444 1.85071H1.48173C0.31697 1.85071 0.232915 1.87472 0.0708101 2.19293C-0.0312562 2.39106 -0.0192484 21.5195 0.0828179 21.7236C0.124845 21.8077 0.256931 21.9217 0.377009 21.9818L0.599153 22.0898L1.36765 21.7596C5.4383 20.0245 9.92922 19.6463 14.5462 20.6429L15.3687 20.823L16.1673 20.6489C17.1519 20.4328 18.3647 20.2466 19.2773 20.1626C20.6582 20.0425 23.1798 20.1146 24.3746 20.3187C26.3739 20.6489 27.8569 21.0812 29.4299 21.7716C30.1984 22.1139 30.3545 22.1199 30.5946 21.8317L30.7447 21.6516V11.9913C30.7447 1.47847 30.7628 2.07886 30.4145 1.92276C30.3125 1.87472 29.8862 1.85071 29.1837 1.85071H28.103V1.39441C28.103 0.884083 28.049 0.745993 27.8148 0.625914C27.3826 0.409775 25.7495 0.133595 24.3746 0.0555439C20.8803 -0.154593 17.9684 0.703964 15.825 2.56517L15.3507 2.97944L14.9185 2.57718C13.6456 1.38841 11.7904 0.541861 9.70107 0.205641C9.1367 0.115583 7.53966 -0.0165024 7.20945 0.00150871C7.12539 0.00150871 6.69311 0.0255241 6.24882 0.0555439ZM9.56898 1.42443C11.5623 1.80268 13.0512 2.51714 14.264 3.66389L14.7744 4.1442V11.553C14.7744 15.6297 14.7624 18.9618 14.7443 18.9618C14.7263 18.9618 14.6003 18.8898 14.4562 18.7997C13.4715 18.1753 11.7784 17.6049 10.1454 17.3468C8.32017 17.0526 6.6751 17.0286 4.25553 17.2567L3.78722 17.2987V9.46365V1.62856L4.28555 1.5325C4.72383 1.44845 5.30021 1.36439 5.94863 1.28634C6.0627 1.27433 6.78317 1.26833 7.53966 1.28034C8.62637 1.29235 9.05865 1.32837 9.56898 1.42443ZM25.6774 1.39441C26.0437 1.44845 26.476 1.5265 26.6381 1.56853L26.9323 1.64057L26.9503 9.46965L26.9623 17.2987L26.5 17.2567C25.1311 17.1306 24.6208 17.1006 23.6842 17.1006C20.9284 17.1006 18.5028 17.6229 16.5935 18.6316L15.9751 18.9558V11.553V4.1502L16.3834 3.74794C17.7823 2.37305 19.4214 1.67059 22.1291 1.28634C22.5554 1.2263 25.047 1.30436 25.6774 1.39441ZM2.64648 10.6344V18.2173L2.77257 18.3554C2.96469 18.5596 3.1328 18.6016 3.55908 18.5355C4.45966 18.4035 6.00867 18.3014 7.11939 18.3014C8.77046 18.3014 10.1574 18.4815 11.4722 18.8658L11.9826 19.0158L11.4122 18.9738C10.5116 18.9078 7.9059 18.9318 7.17943 19.0098C5.31222 19.226 3.30091 19.7123 1.61381 20.3607L1.20555 20.5168V11.7872V3.05149H1.92602H2.64648V10.6344ZM29.544 11.7872V20.5168L29.1417 20.3607C27.1844 19.6222 25.011 19.1299 22.9157 18.9558C22.0931 18.8898 19.8236 18.9138 19.0371 18.9918C18.809 19.0158 18.845 18.9978 19.2473 18.8718C19.9197 18.6676 21.1025 18.4395 21.949 18.3554C22.8496 18.2654 25.5093 18.3194 26.512 18.4455C27.3705 18.5596 27.7068 18.5656 27.8749 18.4755C28.1691 18.3194 28.1631 18.5355 28.1631 10.5263V3.05149H28.8535H29.544V11.7872Z" fill="#0D5FF9"/>
<path d="M48.6116 21V1.4H60.7776V4.312H51.5236V9.044H58.9716V11.956H51.5236V18.088H60.7776V21H48.6116ZM74.1739 -1.66893e-06H77.0859V21H74.1739V18.942C73.7166 19.67 73.1192 20.258 72.3819 20.706C71.6446 21.1447 70.7812 21.364 69.7919 21.364C68.7746 21.364 67.8226 21.1727 66.9359 20.79C66.0492 20.4073 65.2652 19.88 64.5839 19.208C63.9119 18.5267 63.3846 17.7427 63.0019 16.856C62.6192 15.9693 62.4279 15.0173 62.4279 14C62.4279 12.9827 62.6192 12.0307 63.0019 11.144C63.3846 10.248 63.9119 9.464 64.5839 8.792C65.2652 8.11067 66.0492 7.57867 66.9359 7.196C67.8226 6.81333 68.7746 6.622 69.7919 6.622C70.7812 6.622 71.6446 6.846 72.3819 7.294C73.1192 7.73267 73.7166 8.31133 74.1739 9.03V-1.66893e-06ZM69.8199 18.55C70.6412 18.55 71.3599 18.3493 71.9759 17.948C72.5919 17.5373 73.0679 16.9867 73.4039 16.296C73.7492 15.6053 73.9219 14.84 73.9219 14C73.9219 13.1507 73.7492 12.3807 73.4039 11.69C73.0586 10.9993 72.5779 10.4533 71.9619 10.052C71.3552 9.64133 70.6412 9.436 69.8199 9.436C69.0079 9.436 68.2659 9.64133 67.5939 10.052C66.9312 10.4627 66.3992 11.0133 65.9979 11.704C65.6059 12.3947 65.4099 13.16 65.4099 14C65.4099 14.8493 65.6106 15.6193 66.0119 16.31C66.4226 16.9913 66.9592 17.5373 67.6219 17.948C68.2939 18.3493 69.0266 18.55 69.8199 18.55ZM79.8798 15.75V7H82.7918V15.036C82.7918 15.6613 82.9458 16.2307 83.2538 16.744C83.5618 17.2573 83.9724 17.668 84.4858 17.976C84.9991 18.2747 85.5638 18.424 86.1798 18.424C86.8051 18.424 87.3698 18.2747 87.8738 17.976C88.3871 17.668 88.7931 17.2573 89.0918 16.744C89.3998 16.2307 89.5538 15.6613 89.5538 15.036V7H92.4658L92.4798 21H89.5678L89.5538 19.488C89.0778 20.0667 88.4851 20.524 87.7758 20.86C87.0664 21.196 86.3058 21.364 85.4938 21.364C84.4578 21.364 83.5151 21.112 82.6658 20.608C81.8164 20.104 81.1398 19.4273 80.6358 18.578C80.1318 17.7287 79.8798 16.786 79.8798 15.75ZM95.2874 21L99.0954 1.4H101.923L106.697 13.958L111.471 1.4H114.299L118.107 21H114.621L112.269 8.876L107.859 20.552H105.521L101.111 8.876L98.7734 21H95.2874ZM126.139 21.364C124.851 21.364 123.675 21.0327 122.611 20.37C121.556 19.7073 120.711 18.8207 120.077 17.71C119.451 16.59 119.139 15.3533 119.139 14C119.139 12.9733 119.321 12.0167 119.685 11.13C120.049 10.234 120.548 9.45 121.183 8.778C121.827 8.09667 122.573 7.56467 123.423 7.182C124.272 6.79933 125.177 6.608 126.139 6.608C127.427 6.608 128.598 6.93933 129.653 7.602C130.717 8.26467 131.561 9.156 132.187 10.276C132.821 11.396 133.139 12.6373 133.139 14C133.139 15.0173 132.957 15.9693 132.593 16.856C132.229 17.7427 131.725 18.5267 131.081 19.208C130.446 19.88 129.704 20.4073 128.855 20.79C128.015 21.1727 127.109 21.364 126.139 21.364ZM126.139 17.948C126.82 17.948 127.431 17.766 127.973 17.402C128.514 17.038 128.939 16.5573 129.247 15.96C129.564 15.3627 129.723 14.7093 129.723 14C129.723 13.272 129.559 12.6093 129.233 12.012C128.915 11.4053 128.481 10.9247 127.931 10.57C127.389 10.206 126.792 10.024 126.139 10.024C125.467 10.024 124.86 10.206 124.319 10.57C123.777 10.934 123.348 11.4193 123.031 12.026C122.713 12.6327 122.555 13.2907 122.555 14C122.555 14.7373 122.718 15.4047 123.045 16.002C123.371 16.5993 123.805 17.0753 124.347 17.43C124.897 17.7753 125.495 17.948 126.139 17.948ZM148.143 12.152V21H144.727V13.048C144.727 12.4973 144.591 11.998 144.321 11.55C144.05 11.0927 143.686 10.7333 143.229 10.472C142.781 10.2013 142.281 10.066 141.731 10.066C141.18 10.066 140.676 10.2013 140.219 10.472C139.771 10.7333 139.411 11.0927 139.141 11.55C138.879 11.998 138.749 12.4973 138.749 13.048V21H135.333L135.319 7H138.735L138.749 8.246C139.225 7.742 139.794 7.34533 140.457 7.056C141.119 6.75733 141.833 6.608 142.599 6.608C143.616 6.608 144.545 6.86 145.385 7.364C146.225 7.85867 146.892 8.526 147.387 9.366C147.891 10.1967 148.143 11.1253 148.143 12.152Z" fill="white"/>
</svg>
