<svg width="149" height="23" viewBox="0 0 149 23" fill="none" xmlns="http://www.w3.org/2000/svg">
<path d="M4.87474 0.9657C4.1675 1.01373 3.28229 1.18784 2.65468 1.39198C2.12074 1.56609 2.05048 1.67416 2.02706 2.31658L2.00833 2.76087H1.1559C0.24727 2.76087 0.181698 2.78488 0.0552393 3.10309C-0.0243831 3.30122 -0.0150158 22.4296 0.0646066 22.6338C0.0973923 22.7178 0.200433 22.8319 0.294107 22.8919L0.467402 23L1.06691 22.6698C4.24244 20.9347 7.74583 20.5564 11.3476 21.5531L11.9892 21.7332L12.6122 21.5591C13.3803 21.3429 14.3264 21.1568 15.0383 21.0727C16.1155 20.9527 18.0827 21.0247 19.0147 21.2289C20.5744 21.5591 21.7313 21.9913 22.9584 22.6818C23.5579 23.024 23.6797 23.03 23.867 22.7418L23.9841 22.5617V12.9014C23.9841 2.38862 23.9982 2.98901 23.7265 2.83291C23.6469 2.78488 23.3144 2.76087 22.7664 2.76087H21.9233V2.30457C21.9233 1.79424 21.8811 1.65615 21.6985 1.53607C21.3613 1.31993 20.0873 1.04375 19.0147 0.9657C16.2888 0.755564 14.0173 1.61412 12.3452 3.47533L11.9752 3.8896L11.638 3.48734C10.645 2.29857 9.19777 1.45202 7.56785 1.1158C7.12758 1.02574 5.88173 0.893653 5.62412 0.911665C5.55855 0.911665 5.22133 0.935681 4.87474 0.9657ZM7.46481 2.33459C9.01979 2.71283 10.1813 3.4273 11.1274 4.57404L11.5255 5.05435V12.4632C11.5255 16.5398 11.5162 19.872 11.5021 19.872C11.4881 19.872 11.3897 19.7999 11.2773 19.7099C10.5092 19.0855 9.1884 18.5151 7.91444 18.2569C6.4906 17.9627 5.20728 17.9387 3.31976 18.1669L2.95443 18.2089V10.3738V2.53872L3.34318 2.44266C3.68508 2.3586 4.13472 2.27455 4.64055 2.1965C4.72954 2.18449 5.29158 2.17849 5.88173 2.19049C6.72947 2.2025 7.0667 2.23853 7.46481 2.33459ZM20.0311 2.30457C20.3168 2.3586 20.654 2.43666 20.7805 2.47868L21.01 2.55073L21.024 10.3798L21.0334 18.2089L20.6728 18.1669C19.6049 18.0408 19.2068 18.0108 18.4761 18.0108C16.3263 18.0108 14.4341 18.5331 12.9447 19.5418L12.4623 19.866V12.4632V5.06036L12.7808 4.6581C13.8721 3.2832 15.1507 2.58075 17.263 2.1965C17.5956 2.13646 19.5393 2.21451 20.0311 2.30457ZM2.06453 11.5446V19.1275L2.16289 19.2656C2.31277 19.4697 2.44391 19.5117 2.77645 19.4457C3.479 19.3136 4.68739 19.2115 5.55387 19.2115C6.84188 19.2115 7.92381 19.3917 8.94953 19.7759L9.34764 19.926L8.90269 19.884C8.20014 19.8179 6.16743 19.842 5.60071 19.92C4.14408 20.1361 2.57505 20.6225 1.25894 21.2709L0.940453 21.427V12.6973V3.96164H1.50249H2.06453V11.5446ZM23.0474 12.6973V21.427L22.7336 21.2709C21.2067 20.5324 19.5112 20.0401 17.8766 19.866C17.2349 19.7999 15.4645 19.8239 14.851 19.902C14.673 19.926 14.7011 19.908 15.0149 19.7819C15.5395 19.5778 16.4621 19.3496 17.1225 19.2656C17.8251 19.1755 19.9 19.2296 20.6821 19.3556C21.3519 19.4697 21.6142 19.4757 21.7453 19.3857C21.9748 19.2296 21.9701 19.4457 21.9701 11.4365V3.96164H22.5088H23.0474V12.6973Z" fill="#0D5FF9"/>
<path d="M33.0443 21.91V2.31H45.2103V5.222H35.9563V9.954H43.4043V12.866H35.9563V18.998H45.2103V21.91H33.0443ZM58.6065 0.910002H61.5185V21.91H58.6065V19.852C58.1492 20.58 57.5518 21.168 56.8145 21.616C56.0772 22.0547 55.2138 22.274 54.2245 22.274C53.2072 22.274 52.2552 22.0827 51.3685 21.7C50.4818 21.3173 49.6978 20.79 49.0165 20.118C48.3445 19.4367 47.8172 18.6527 47.4345 17.766C47.0518 16.8793 46.8605 15.9273 46.8605 14.91C46.8605 13.8927 47.0518 12.9407 47.4345 12.054C47.8172 11.158 48.3445 10.374 49.0165 9.702C49.6978 9.02067 50.4818 8.48867 51.3685 8.106C52.2552 7.72334 53.2072 7.532 54.2245 7.532C55.2138 7.532 56.0772 7.756 56.8145 8.204C57.5518 8.64267 58.1492 9.22134 58.6065 9.94V0.910002ZM54.2525 19.46C55.0738 19.46 55.7925 19.2593 56.4085 18.858C57.0245 18.4473 57.5005 17.8967 57.8365 17.206C58.1818 16.5153 58.3545 15.75 58.3545 14.91C58.3545 14.0607 58.1818 13.2907 57.8365 12.6C57.4912 11.9093 57.0105 11.3633 56.3945 10.962C55.7878 10.5513 55.0738 10.346 54.2525 10.346C53.4405 10.346 52.6985 10.5513 52.0265 10.962C51.3638 11.3727 50.8318 11.9233 50.4305 12.614C50.0385 13.3047 49.8425 14.07 49.8425 14.91C49.8425 15.7593 50.0432 16.5293 50.4445 17.22C50.8552 17.9013 51.3918 18.4473 52.0545 18.858C52.7265 19.2593 53.4592 19.46 54.2525 19.46ZM64.3124 16.66V7.91H67.2244V15.946C67.2244 16.5713 67.3784 17.1407 67.6864 17.654C67.9944 18.1673 68.405 18.578 68.9184 18.886C69.4317 19.1847 69.9964 19.334 70.6124 19.334C71.2377 19.334 71.8024 19.1847 72.3064 18.886C72.8197 18.578 73.2257 18.1673 73.5244 17.654C73.8324 17.1407 73.9864 16.5713 73.9864 15.946V7.91H76.8984L76.9124 21.91H74.0004L73.9864 20.398C73.5104 20.9767 72.9177 21.434 72.2084 21.77C71.499 22.106 70.7384 22.274 69.9264 22.274C68.8904 22.274 67.9477 22.022 67.0984 21.518C66.249 21.014 65.5724 20.3373 65.0684 19.488C64.5644 18.6387 64.3124 17.696 64.3124 16.66ZM79.72 21.91L83.528 2.31H86.356L91.13 14.868L95.904 2.31H98.732L102.54 21.91H99.054L96.702 9.786L92.292 21.462H89.954L85.544 9.786L83.206 21.91H79.72ZM110.571 22.274C109.283 22.274 108.107 21.9427 107.043 21.28C105.989 20.6173 105.144 19.7307 104.509 18.62C103.884 17.5 103.571 16.2633 103.571 14.91C103.571 13.8833 103.753 12.9267 104.117 12.04C104.481 11.144 104.981 10.36 105.615 9.688C106.259 9.00667 107.006 8.47467 107.855 8.092C108.705 7.70934 109.61 7.518 110.571 7.518C111.859 7.518 113.031 7.84934 114.085 8.512C115.149 9.17467 115.994 10.066 116.619 11.186C117.254 12.306 117.571 13.5473 117.571 14.91C117.571 15.9273 117.389 16.8793 117.025 17.766C116.661 18.6527 116.157 19.4367 115.513 20.118C114.879 20.79 114.137 21.3173 113.287 21.7C112.447 22.0827 111.542 22.274 110.571 22.274ZM110.571 18.858C111.253 18.858 111.864 18.676 112.405 18.312C112.947 17.948 113.371 17.4673 113.679 16.87C113.997 16.2727 114.155 15.6193 114.155 14.91C114.155 14.182 113.992 13.5193 113.665 12.922C113.348 12.3153 112.914 11.8347 112.363 11.48C111.822 11.116 111.225 10.934 110.571 10.934C109.899 10.934 109.293 11.116 108.751 11.48C108.21 11.844 107.781 12.3293 107.463 12.936C107.146 13.5427 106.987 14.2007 106.987 14.91C106.987 15.6473 107.151 16.3147 107.477 16.912C107.804 17.5093 108.238 17.9853 108.779 18.34C109.33 18.6853 109.927 18.858 110.571 18.858ZM132.575 13.062V21.91H129.159V13.958C129.159 13.4073 129.024 12.908 128.753 12.46C128.483 12.0027 128.119 11.6433 127.661 11.382C127.213 11.1113 126.714 10.976 126.163 10.976C125.613 10.976 125.109 11.1113 124.651 11.382C124.203 11.6433 123.844 12.0027 123.573 12.46C123.312 12.908 123.181 13.4073 123.181 13.958V21.91H119.765L119.751 7.91H123.167L123.181 9.156C123.657 8.652 124.227 8.25534 124.889 7.966C125.552 7.66734 126.266 7.518 127.031 7.518C128.049 7.518 128.977 7.77 129.817 8.274C130.657 8.76867 131.325 9.436 131.819 10.276C132.323 11.1067 132.575 12.0353 132.575 13.062Z" fill="#002935"/>
</svg>
