<svg width="22" height="22" viewBox="0 0 22 22" fill="none" xmlns="http://www.w3.org/2000/svg">
<path opacity="0.98" fill-rule="evenodd" clip-rule="evenodd" d="M9.96859 0.0245893C11.868 -0.0972084 13.6829 0.233468 15.4132 1.01661C16.0284 1.58568 16.0284 2.15475 15.4132 2.72382C15.2415 2.82059 15.0569 2.87442 14.8595 2.88531C14.2046 2.66448 13.5432 2.45685 12.8755 2.26241C9.1029 1.55438 6.03454 2.70021 3.67038 5.6999C1.99607 8.16377 1.59618 10.8246 2.47072 13.6822C3.53551 16.5773 5.54263 18.4767 8.49209 19.3806C12.1463 20.208 15.2146 19.2314 17.6972 16.4507C19.2181 14.4552 19.8948 12.1943 19.7273 9.668C19.9543 9.08916 20.3772 8.86612 20.9962 8.99896C21.3602 9.10314 21.5832 9.34155 21.6653 9.71414C21.941 13.5497 20.6413 16.7258 17.7664 19.2422C14.8365 21.5263 11.5605 22.2184 7.9384 21.3185C4.49506 20.29 2.08805 18.1136 0.717378 14.7896C-0.640101 10.8768 -0.0710331 7.27782 2.42458 3.99269C4.40748 1.66693 6.92215 0.344229 9.96859 0.0245893Z" fill="#2D2D2D"/>
<path opacity="0.978" fill-rule="evenodd" clip-rule="evenodd" d="M20.3978 2.00892C21.3149 1.92478 21.7378 2.34004 21.6666 3.25472C21.6332 3.36774 21.587 3.4754 21.5282 3.57771C18.1522 6.95369 14.7763 10.3296 11.4003 13.7056C11.0312 13.9209 10.6621 13.9209 10.293 13.7056C9.20865 12.6213 8.12434 11.537 7.04004 10.4527C6.71858 9.71955 6.92621 9.20429 7.66294 8.90696C8.00632 8.842 8.31394 8.91891 8.58575 9.13767C9.324 9.87592 10.0623 10.6142 10.8005 11.3524C10.8313 11.3832 10.862 11.3832 10.8928 11.3524C13.9534 8.29177 17.0141 5.23107 20.0748 2.17042C20.1867 2.11447 20.2944 2.06063 20.3978 2.00892Z" fill="#2E2E2E"/>
</svg>
