<svg width="14" height="14" viewBox="0 0 14 14" fill="none" xmlns="http://www.w3.org/2000/svg">
<path d="M5.27857 0.0307198C3.9273 0.170223 2.67724 0.766534 1.70618 1.73485C1.03328 2.40775 0.579214 3.14083 0.289265 4.02162C-0.0964217 5.19236 -0.0964217 6.40686 0.289265 7.5776C0.579214 8.46112 1.03602 9.19694 1.71166 9.8671C3.04651 11.1938 4.86553 11.7955 6.74199 11.5302C7.70758 11.3934 8.6759 10.9968 9.43633 10.4251C9.51839 10.3622 9.59225 10.3157 9.60319 10.3184C9.61413 10.3239 10.4429 11.1336 11.4441 12.1183C12.5847 13.2398 13.3041 13.9264 13.3698 13.9565C13.6379 14.0823 13.9387 13.9237 13.9935 13.6282C14.0372 13.3985 14.1904 13.5626 11.1924 10.6029L10.2569 9.67836L10.4156 9.49236C11.0994 8.70183 11.5508 7.70069 11.7231 6.60654C11.7887 6.17983 11.7887 5.39751 11.7231 4.96532C11.5289 3.70979 10.9791 2.63205 10.0627 1.72118C8.80446 0.471114 7.05109 -0.149815 5.27857 0.0307198ZM6.58881 0.947068C7.6939 1.10845 8.66496 1.58988 9.43359 2.35578C10.3746 3.29948 10.8642 4.47296 10.8642 5.79961C10.8642 6.28924 10.8204 6.62569 10.7055 7.04967C10.1256 9.20514 8.15891 10.6959 5.89403 10.6959C4.5455 10.6959 3.2927 10.1844 2.3572 9.24891C1.7226 8.6143 1.29862 7.88122 1.06884 7.03053C0.866427 6.27283 0.866427 5.32639 1.06884 4.5687C1.52839 2.85635 2.88786 1.50782 4.60294 1.06469C5.2266 0.903302 5.98977 0.856801 6.58881 0.947068Z" fill="#444444"/>
</svg>
