<svg width="53" height="4" viewBox="0 0 53 4" fill="none" xmlns="http://www.w3.org/2000/svg">
<path d="M51 3.80957H52.5V0.80957H51V3.80957ZM4.25 3.80957H5.75V0.80957H4.25V3.80957ZM12.75 0.80957H11.25V3.80957H12.75V0.80957ZM21.25 3.80957H22.75V0.80957H21.25V3.80957ZM29.75 0.80957H28.25V3.80957H29.75V0.80957ZM38.25 3.80957H39.75V0.80957H38.25V3.80957ZM46.75 0.80957H45.25V3.80957H46.75V0.80957ZM0 3.80957H4.25V0.80957H0V3.80957ZM12.75 3.80957H21.25V0.80957H12.75V3.80957ZM29.75 3.80957H38.25V0.80957H29.75V3.80957ZM46.75 3.80957H51V0.80957H46.75V3.80957Z" fill="#0D5FF9"/>
</svg>
